<?xml version="1.0" encoding="utf-8"?>
<!-- Generator: Adobe Illustrator 16.0.0, SVG Export Plug-In . SVG Version: 6.00 Build 0)  -->
<!DOCTYPE svg PUBLIC "-//W3C//DTD SVG 1.1//EN" "http://www.w3.org/Graphics/SVG/1.1/DTD/svg11.dtd">
<svg version="1.1" id="Layer_1" xmlns="http://www.w3.org/2000/svg" xmlns:xlink="http://www.w3.org/1999/xlink" x="0px" y="0px"
	 width="148px" height="148px" viewBox="0 0 148 148" enable-background="new 0 0 148 148" xml:space="preserve">
<path opacity="0.55" fill="#0D0E0F" enable-background="new    " d="M148,139.496c0,4.695-3.809,8.504-8.504,8.504H8.504
	C3.807,148,0,144.191,0,139.496V8.504C0,3.807,3.807,0,8.504,0h130.992C144.191,0,148,3.807,148,8.504V139.496z"/>
<polygon opacity="0.9" fill="#FFFFFF" enable-background="new    " points="58.111,38.244 58.107,80.788 95.107,59.51 "/>
<g>
	<path fill="#FFFFFF" d="M17,127.462V109.3h2.957c1.298,0,2.296,0.363,2.997,1.09c0.7,0.727,1.051,1.997,1.051,3.813
		c0,2.111-0.735,3.408-2.205,3.893c1.729,0.38,2.594,1.772,2.594,4.177c0,1.92-0.354,3.266-1.063,4.034
		c-0.709,0.77-1.695,1.155-2.958,1.155H17z M22.085,114.411v-0.623c0-1.089-0.173-1.838-0.52-2.244
		c-0.346-0.406-0.839-0.609-1.479-0.609h-1.012v6.512h1.012C21.419,117.446,22.085,116.436,22.085,114.411z M22.37,122.766v-0.701
		c0-2.161-0.684-3.243-2.05-3.243h-1.245v7.006h1.245c0.657,0,1.163-0.225,1.518-0.675C22.192,124.703,22.37,123.907,22.37,122.766z
		"/>
	<path fill="#FFFFFF" d="M28.985,119.236v6.564H33.5v1.661h-6.59V109.3h6.513v1.66h-4.438v6.616h4.048v1.66H28.985z"/>
	<path fill="#FFFFFF" d="M38.3,127.462h-2.075V109.3H38.3v7.68l3.814-7.68h2.075l-3.97,7.81l4.125,10.353H42.27l-3.14-8.174
		l-0.83,1.636V127.462z"/>
	<path fill="#FFFFFF" d="M46.109,127.462V109.3h2.075v18.162H46.109z"/>
	<path fill="#FFFFFF" d="M52.323,125.788c0.182,0.286,0.428,0.428,0.739,0.428c0.657,0,0.985-0.804,0.985-2.412V109.3h2.05v14.088
		c0,2.976-1.046,4.463-3.139,4.463c-0.692,0-1.319-0.264-1.881-0.792c-0.562-0.526-0.896-1.413-1-2.659l1.868-0.259
		C52.016,124.954,52.142,125.503,52.323,125.788z"/>
	<path fill="#FFFFFF" d="M61.183,127.462h-2.075V109.3h2.075v7.68l3.814-7.68h2.076l-3.97,7.81l4.125,10.353h-2.076l-3.139-8.174
		l-0.831,1.636V127.462z"/>
	<path fill="#FFFFFF" d="M71.432,110.96v-1.66h7.082v1.66h-2.516v16.502h-2.051V110.96H71.432z"/>
	<path fill="#FFFFFF" d="M80.485,127.462V109.3h3.218c1.279,0,2.273,0.406,2.983,1.22c0.709,0.813,1.063,2.274,1.063,4.385v0.13
		c0,2.629-0.64,4.298-1.919,5.008l2.153,7.42h-2.128l-2.023-6.953h-1.271v6.953H80.485z M85.701,115.293v-0.777
		c0-1.332-0.178-2.258-0.532-2.776c-0.354-0.52-0.843-0.779-1.466-0.779h-1.142v7.913h1.142
		C85.034,118.873,85.701,117.681,85.701,115.293z"/>
	<path fill="#FFFFFF" d="M96.597,127.462l-0.804-4.723h-3.658l-0.778,4.723H89.28l3.321-18.162h2.75l3.321,18.162H96.597z
		 M93.977,111.92l-1.558,9.158h3.089L93.977,111.92z"/>
	<path fill="#FFFFFF" d="M100.722,127.462V109.3h2.076v18.162H100.722z"/>
	<path fill="#FFFFFF" d="M106.067,127.462V109.3h2.075v16.501h4.021v1.661H106.067z"/>
	<path fill="#FFFFFF" d="M116.264,119.236v6.564h4.515v1.661h-6.591V109.3h6.513v1.66h-4.437v6.616h4.048v1.66H116.264z"/>
	<path fill="#FFFFFF" d="M123.501,127.462V109.3h3.218c1.279,0,2.273,0.406,2.982,1.22c0.71,0.813,1.064,2.274,1.064,4.385v0.13
		c0,2.629-0.641,4.298-1.92,5.008l2.154,7.42h-2.129l-2.022-6.953h-1.272v6.953H123.501z M128.716,115.293v-0.777
		c0-1.332-0.177-2.258-0.531-2.776c-0.355-0.52-0.844-0.779-1.466-0.779h-1.143v7.913h1.143
		C128.05,118.873,128.716,117.681,128.716,115.293z"/>
</g>
</svg>
