<?xml version="1.0" encoding="utf-8"?>
<!-- Generator: Adobe Illustrator 16.0.0, SVG Export Plug-In . SVG Version: 6.00 Build 0)  -->
<!DOCTYPE svg PUBLIC "-//W3C//DTD SVG 1.1//EN" "http://www.w3.org/Graphics/SVG/1.1/DTD/svg11.dtd">
<svg version="1.1" id="Layer_1" xmlns="http://www.w3.org/2000/svg" xmlns:xlink="http://www.w3.org/1999/xlink" x="0px" y="0px"
	 width="148px" height="148px" viewBox="0 0 148 148" enable-background="new 0 0 148 148" xml:space="preserve">
<path opacity="0.55" fill="#0D0E0F" d="M148,139.496c0,4.696-3.808,8.504-8.504,8.504H8.504C3.807,148,0,144.192,0,139.496V8.504
	C0,3.807,3.807,0,8.504,0h130.992C144.192,0,148,3.807,148,8.504V139.496z"/>
<polygon opacity="0.9" fill="#FFFFFF" points="58.111,38.244 58.107,80.788 95.107,59.51 "/>
<g>
	<path fill="#FFFFFF" d="M31.391,119.003c0-1.443-0.487-2.554-1.462-3.33l-2.166-1.598c-1.625-1.155-2.438-2.861-2.438-5.118
		c0-1.877,0.356-3.19,1.069-3.94c0.714-0.748,1.688-1.124,2.925-1.124s2.198,0.349,2.885,1.043c0.686,0.695,1.101,1.954,1.245,3.777
		l-2.059,0.461c-0.072-2.311-0.744-3.467-2.018-3.467c-1.271,0-1.908,0.984-1.908,2.951c0,0.868,0.095,1.571,0.284,2.114
		c0.189,0.54,0.555,1.028,1.097,1.461l2.139,1.599c0.506,0.36,0.912,0.703,1.22,1.028c0.307,0.325,0.6,0.844,0.88,1.558
		c0.279,0.713,0.42,1.557,0.42,2.531c0,1.732-0.375,2.951-1.125,3.656c-0.749,0.703-1.765,1.056-3.046,1.056
		c-1.282,0-2.284-0.415-3.006-1.245c-0.722-0.831-1.164-2.311-1.327-4.441l2.031-0.353c0.072,1.535,0.293,2.627,0.663,3.277
		c0.37,0.649,0.89,0.975,1.558,0.975C30.678,121.874,31.391,120.917,31.391,119.003z"/>
	<path fill="#FFFFFF" d="M36.347,123.255V104.3h3.357c1.355,0,2.397,0.438,3.129,1.312c0.73,0.876,1.096,2.461,1.096,4.752v0.137
		c0,2.293-0.365,3.871-1.096,4.738c-0.731,0.867-1.773,1.3-3.129,1.3h-1.19v6.716H36.347z M41.79,110.853v-0.84
		c0-2.653-0.695-3.98-2.086-3.98h-1.19v8.801h1.19C41.095,114.833,41.79,113.507,41.79,110.853z"/>
	<path fill="#FFFFFF" d="M48.343,114.67v6.853h4.712v1.732h-6.878V104.3h6.796v1.732h-4.63v6.905h4.225v1.732H48.343z"/>
	<path fill="#FFFFFF" d="M58.064,114.67v6.853h4.711v1.732h-6.878V104.3h6.797v1.732h-4.63v6.905h4.224v1.732H58.064z"/>
	<path fill="#FFFFFF" d="M65.619,123.255V104.3h2.167v17.223h4.196v1.732H65.619z"/>
	<path fill="#FFFFFF" d="M78.887,104.3l2.709,15.814l2.707-15.814h2.167l-3.521,18.955h-2.707L76.721,104.3H78.887z"/>
	<path fill="#FFFFFF" d="M88.608,123.255V104.3h2.167v18.955H88.608z"/>
	<path fill="#FFFFFF" d="M94.188,123.255V104.3h3.683c1.371,0,2.429,0.438,3.17,1.312c0.738,0.876,1.108,2.461,1.108,4.752v6.825
		c0,2.293-0.37,3.877-1.108,4.752c-0.741,0.876-1.799,1.313-3.17,1.313H94.188z M100.009,117.677v-7.772
		c0-2.581-0.713-3.872-2.139-3.872h-1.517v15.517h1.517C99.296,121.549,100.009,120.259,100.009,117.677z"/>
	<path fill="#FFFFFF" d="M107.347,114.67v6.853h4.712v1.732h-6.878V104.3h6.797v1.732h-4.631v6.905h4.226v1.732H107.347z"/>
	<path fill="#FFFFFF" d="M123,109.959v7.636c0,2.294-0.366,3.878-1.097,4.753c-0.732,0.876-1.778,1.313-3.142,1.313
		s-2.409-0.438-3.143-1.313c-0.73-0.875-1.095-2.459-1.095-4.753v-7.636c0-2.292,0.364-3.876,1.095-4.752
		c0.733-0.876,1.779-1.314,3.143-1.314s2.409,0.438,3.142,1.314C122.634,106.083,123,107.667,123,109.959z M120.859,118.002v-8.449
		c0-2.6-0.693-3.899-2.084-3.899c-0.668,0-1.188,0.28-1.558,0.84c-0.37,0.559-0.555,1.58-0.555,3.06v8.449
		c0,1.48,0.185,2.5,0.555,3.061c0.37,0.559,0.89,0.838,1.558,0.838C120.166,121.9,120.859,120.602,120.859,118.002z"/>
</g>
</svg>
