<?xml version="1.0" encoding="utf-8"?>
<!-- Generator: Adobe Illustrator 16.0.0, SVG Export Plug-In . SVG Version: 6.00 Build 0)  -->
<!DOCTYPE svg PUBLIC "-//W3C//DTD SVG 1.1//EN" "http://www.w3.org/Graphics/SVG/1.1/DTD/svg11.dtd">
<svg version="1.1" id="Layer_1" xmlns="http://www.w3.org/2000/svg" xmlns:xlink="http://www.w3.org/1999/xlink" x="0px" y="0px"
	 width="130px" height="154px" viewBox="0 0 130 154" enable-background="new 0 0 130 154" xml:space="preserve">
<path opacity="0.6" fill="#0D0E0F" d="M130,139.93c0,7.771-6.301,14.07-14.071,14.07H14.072C6.301,154,0,147.7,0,139.93V14.07
	C0,6.299,6.301,0,14.072,0h101.856C123.699,0,130,6.299,130,14.07V139.93z"/>
<g>
	<path fill="#FFFFFF" d="M65.001,112.267c-26.013,0-47.177-21.163-47.177-47.16c0-26.011,21.164-47.173,47.177-47.173
		c26.011,0,47.173,21.162,47.173,47.173C112.175,91.104,91.013,112.267,65.001,112.267z M65.001,20.933
		c-24.359,0-44.177,19.816-44.177,44.173c0,24.343,19.817,44.16,44.177,44.16c24.357,0,44.173-19.817,44.173-44.16
		C109.175,40.749,89.358,20.933,65.001,20.933z"/>
	<polygon fill="#FFFFFF" points="52.707,46.991 52.702,83.211 84.214,65.106 	"/>
</g>
<g>
	<g>
		<path fill="#FFFFFF" d="M14.958,135.728l0.925-1.274c0.63,0.686,1.653,1.303,2.956,1.303c1.345,0,1.863-0.659,1.863-1.289
			c0-1.961-5.435-0.742-5.435-4.174c0-1.556,1.345-2.746,3.404-2.746c1.443,0,2.634,0.477,3.488,1.316l-0.925,1.219
			c-0.742-0.742-1.737-1.078-2.717-1.078c-0.953,0-1.569,0.477-1.569,1.162c0,1.751,5.435,0.673,5.435,4.146
			c0,1.555-1.107,2.899-3.614,2.899C17.045,137.212,15.798,136.596,14.958,135.728z"/>
		<path fill="#FFFFFF" d="M25.276,137.044v-9.343h4.118c1.961,0,3.04,1.331,3.04,2.928c0,1.583-1.093,2.913-3.04,2.913h-2.479v3.502
			H25.276z M30.753,130.629c0-0.896-0.659-1.485-1.583-1.485h-2.255v2.956h2.255C30.094,132.1,30.753,131.511,30.753,130.629z"/>
		<path fill="#FFFFFF" d="M35.202,137.044v-9.343h6.401v1.442H36.84v2.409h4.665v1.443H36.84v2.605h4.763v1.442H35.202z"/>
		<path fill="#FFFFFF" d="M44.68,137.044v-9.343h6.401v1.442h-4.763v2.409h4.665v1.443h-4.665v2.605h4.763v1.442H44.68z"/>
		<path fill="#FFFFFF" d="M54.045,137.044v-9.343h1.639v7.9h4.118v1.442H54.045z"/>
		<path fill="#FFFFFF" d="M70.357,137.044l-3.67-9.343h1.863l2.829,7.55l2.829-7.55h1.863l-3.67,9.343H70.357z"/>
		<path fill="#FFFFFF" d="M78.476,137.044v-9.343h1.639v9.343H78.476z"/>
		<path fill="#FFFFFF" d="M83.502,137.044v-9.343h3.473c2.928,0,4.889,1.933,4.889,4.664c0,2.76-1.961,4.679-4.874,4.679H83.502z
			 M90.184,132.365c0-1.793-1.121-3.222-3.194-3.222h-1.849v6.458h1.834C89.006,135.602,90.184,134.145,90.184,132.365z"/>
		<path fill="#FFFFFF" d="M94.842,137.044v-9.343h6.4v1.442H96.48v2.409h4.664v1.443H96.48v2.605h4.762v1.442H94.842z"/>
		<path fill="#FFFFFF" d="M103.913,132.38c0-2.788,1.976-4.833,4.776-4.833c2.787,0,4.777,2.045,4.777,4.833
			c0,2.787-1.99,4.832-4.777,4.832C105.889,137.212,103.913,135.167,103.913,132.38z M111.785,132.38
			c0-1.934-1.219-3.376-3.096-3.376c-1.891,0-3.096,1.442-3.096,3.376c0,1.919,1.205,3.376,3.096,3.376
			C110.566,135.756,111.785,134.299,111.785,132.38z"/>
	</g>
</g>
</svg>
