<?xml version="1.0" encoding="utf-8"?>
<!-- Generator: Adobe Illustrator 16.0.0, SVG Export Plug-In . SVG Version: 6.00 Build 0)  -->
<!DOCTYPE svg PUBLIC "-//W3C//DTD SVG 1.1//EN" "http://www.w3.org/Graphics/SVG/1.1/DTD/svg11.dtd">
<svg version="1.1" id="Layer_1" xmlns="http://www.w3.org/2000/svg" xmlns:xlink="http://www.w3.org/1999/xlink" x="0px" y="0px"
	 width="60.001px" height="54px" viewBox="0 0 60.001 54" enable-background="new 0 0 60.001 54" xml:space="preserve">
<path opacity="0.6" fill="#231F20" d="M60.001,54.093H0V9.939C0,4.451,4.451,0,9.939,0h40.121c5.49,0,9.94,4.451,9.94,9.939V54.093z
	"/>
<g>
	<path fill="#FFFFFF" d="M15.147,22.279c0-0.938-0.316-1.657-0.949-2.161l-1.405-1.036c-1.054-0.75-1.582-1.856-1.582-3.321
		c0-1.217,0.231-2.069,0.694-2.555c0.462-0.487,1.095-0.729,1.897-0.729s1.426,0.226,1.872,0.676
		c0.444,0.451,0.714,1.268,0.808,2.451l-1.335,0.298c-0.047-1.499-0.483-2.249-1.309-2.249s-1.239,0.639-1.239,1.916
		c0,0.562,0.062,1.02,0.185,1.37c0.124,0.351,0.36,0.668,0.711,0.949l1.388,1.035c0.328,0.235,0.591,0.457,0.791,0.668
		c0.199,0.212,0.389,0.548,0.571,1.011c0.181,0.462,0.272,1.01,0.272,1.643c0,1.125-0.243,1.915-0.729,2.372
		s-1.145,0.685-1.977,0.685s-1.482-0.27-1.95-0.809c-0.469-0.538-0.756-1.498-0.861-2.881l1.318-0.229
		c0.046,0.995,0.19,1.705,0.431,2.125c0.24,0.423,0.576,0.633,1.01,0.633C14.684,24.141,15.147,23.521,15.147,22.279z"/>
	<path fill="#FFFFFF" d="M19.925,23.623c0.223,0.357,0.538,0.536,0.948,0.536s0.717-0.155,0.923-0.467
		c0.205-0.309,0.343-0.898,0.413-1.765l1.229,0.159c-0.105,1.194-0.372,2.028-0.799,2.502c-0.428,0.475-1.04,0.712-1.836,0.712
		c-0.796,0-1.429-0.287-1.897-0.86c-0.468-0.574-0.702-1.628-0.702-3.162V16.5c0-1.536,0.234-2.589,0.702-3.163
		c0.469-0.574,1.098-0.86,1.889-0.86c0.79,0,1.394,0.204,1.81,0.614c0.416,0.411,0.67,1.143,0.764,2.196l-1.282,0.316
		c-0.07-0.75-0.202-1.268-0.395-1.555c-0.193-0.288-0.48-0.432-0.861-0.432c-0.38,0-0.682,0.185-0.904,0.554
		s-0.334,1.047-0.334,2.029v5.446C19.591,22.607,19.703,23.266,19.925,23.623z"/>
	<path fill="#FFFFFF" d="M25.107,25.037V12.739h2.179c0.866,0,1.54,0.275,2.02,0.825c0.48,0.552,0.72,1.541,0.72,2.97v0.088
		c0,1.78-0.433,2.91-1.3,3.391l1.458,5.024h-1.441l-1.37-4.708h-0.861v4.708H25.107z M28.639,16.798v-0.527
		c0-0.901-0.121-1.528-0.36-1.879c-0.24-0.352-0.571-0.527-0.992-0.527h-0.773v5.358h0.773
		C28.188,19.223,28.639,18.414,28.639,16.798z"/>
	<path fill="#FFFFFF" d="M37.229,16.412v4.954c0,1.487-0.237,2.516-0.712,3.083c-0.474,0.567-1.154,0.852-2.037,0.852
		c-0.885,0-1.564-0.284-2.038-0.852c-0.474-0.567-0.711-1.596-0.711-3.083v-4.954c0-1.488,0.237-2.516,0.711-3.084
		c0.474-0.568,1.153-0.852,2.038-0.852c0.883,0,1.563,0.283,2.037,0.852C36.992,13.896,37.229,14.924,37.229,16.412z M35.842,21.63
		v-5.481c0-1.688-0.451-2.531-1.354-2.531c-0.433,0-0.77,0.183-1.01,0.545c-0.24,0.363-0.36,1.025-0.36,1.986v5.481
		c0,0.96,0.12,1.621,0.36,1.984s0.577,0.545,1.01,0.545C35.391,24.159,35.842,23.315,35.842,21.63z"/>
	<path fill="#FFFFFF" d="M39.284,25.037V12.739h1.406v11.175h2.723v1.123H39.284z"/>
	<path fill="#FFFFFF" d="M44.87,25.037V12.739h1.407v11.175H49v1.123H44.87z"/>
</g>
<path fill="#FFFFFF" d="M30,41.408c-0.126,0-0.252-0.023-0.371-0.07l-17.982-7.047c-0.523-0.205-0.781-0.795-0.576-1.319
	c0.205-0.521,0.795-0.78,1.319-0.575l17.61,6.9l17.61-6.9c0.521-0.203,1.114,0.053,1.319,0.575c0.205,0.524-0.054,1.114-0.576,1.319
	l-17.982,7.047C30.252,41.385,30.126,41.408,30,41.408z"/>
</svg>
