<?xml version="1.0" encoding="utf-8"?>
<!-- Generator: Adobe Illustrator 16.0.0, SVG Export Plug-In . SVG Version: 6.00 Build 0)  -->
<!DOCTYPE svg PUBLIC "-//W3C//DTD SVG 1.1//EN" "http://www.w3.org/Graphics/SVG/1.1/DTD/svg11.dtd">
<svg version="1.1" id="Layer_1" xmlns="http://www.w3.org/2000/svg" xmlns:xlink="http://www.w3.org/1999/xlink" x="0px" y="0px"
	 width="391px" height="521px" viewBox="0 0 391 521" enable-background="new 0 0 391 521" xml:space="preserve">
<path d="M168.096,253.355c0.15-0.285,0.306-0.559,0.444-0.863c-0.18,0.047-0.359,0.094-0.539,0.142
	C167.978,252.953,167.958,253.268,168.096,253.355z"/>
<path d="M150.44,264.901c-0.296,0.135-0.588,0.271-0.872,0.412C149.856,265.171,150.148,265.036,150.44,264.901z"/>
<path d="M155.098,210.783c0.016-0.028,0.03-0.054,0.046-0.083C155.128,210.728,155.113,210.755,155.098,210.783z"/>
<path d="M313.496,221.527c-4.479-5.68-10.395-8.246-18.764-9.613C303.101,213.281,309.016,215.847,313.496,221.527z"/>
<path d="M227.575,179.897c-0.297-1.449-0.431-3.047-0.419-4.747C227.145,176.851,227.278,178.448,227.575,179.897z"/>
<path d="M135.779,35.118c-0.501,4.277-0.153,8.667-0.809,12.91c-0.443,2.868-1.436,5.958-3.115,8.272
	c-5.295,7.302-11.763,13.524-18.972,18.683c-1.885,0.354-3.438,0.201-4.747-0.337c1.31,0.54,2.865,0.693,4.752,0.339
	c7.209-5.158,13.677-11.381,18.972-18.683c1.679-2.314,2.671-5.404,3.115-8.271c0.656-4.243,0.308-8.633,0.809-12.91
	c0.82-6.99-2.857-11.672-7.571-15.916c-3.097-2.788-6.599-4.69-10.339-6.156c3.739,1.465,7.238,3.368,10.334,6.154
	C132.922,23.446,136.599,28.128,135.779,35.118z"/>
<path d="M31.834,157.667c-1.232,2.714-1.581,4.171-2.725,6.922c-2.684,6.453-0.728,12.314,2.448,17.983
	c2.234,3.989,6.275,4.855,10.213,5.323c2.428,0.288,4.81,0.435,7.149,0.447c-2.339-0.013-4.721-0.159-7.148-0.447
	c-3.938-0.467-7.979-1.334-10.213-5.323c-3.176-5.669-5.132-11.53-2.448-17.983c1.145-2.751,2.432-5.443,3.664-8.157
	c0.273-0.603,0.586-1.186,0.812-1.64c-0.002-0.004-0.005-0.007-0.007-0.011c0.002,0.003,0.003,0.008,0.005,0.011
	C33.358,155.246,32.106,157.064,31.834,157.667z"/>
<path d="M34.824,146.966c0,0.002-0.001,0.004-0.001,0.006c0.001-0.002,0.002-0.004,0.003-0.006
	c-0.001-1.497-0.001-2.986-0.002-4.538C34.63,143.85,34.511,145.458,34.824,146.966z"/>
<path d="M126.365,157.689c1.51-5.587,1.276-11.193,0.062-16.787c-2.252-10.375-8.463-18.317-15.941-25.38
	c-7.415-7.003-15.907-12.59-24.461-18.087c-3.775-2.426-7.492-4.98-11.001-7.771c-5.012-3.988-6.195-9.263-4.151-15.236
	c0.802-2.345,1.666-4.729,2.921-6.847c6.694-11.295,15.231-21.003,26.064-28.459c3.502-2.41,7.602-4.037,11.585-5.631
	c1.561-0.625,3.209-0.808,4.845-0.324c-1.637-0.486-3.288-0.304-4.85,0.322c-3.983,1.594-8.083,3.221-11.585,5.631
	c-10.83,7.457-19.367,17.165-26.061,28.46c-1.255,2.117-2.119,4.502-2.921,6.847c-2.044,5.974-0.861,11.248,4.151,15.236
	c3.509,2.791,7.226,5.346,11.001,7.771c8.554,5.497,17.046,11.084,24.461,18.087c7.479,7.062,13.689,15.005,15.941,25.38
	c1.214,5.594,1.448,11.2-0.062,16.787c-7.23,26.758-25.04,42.434-51.61,48.339c-13.003,2.891-25.37,1.25-36.933-4.255
	c11.563,5.505,23.93,7.146,36.935,4.256C101.325,200.123,119.135,184.447,126.365,157.689z"/>
<path d="M31.861,152.241C31.861,152.241,31.861,152.24,31.861,152.241c0.006-0.012,0.012-0.022,0.019-0.034
	c-0.007,0.012-0.014,0.022-0.021,0.034C31.86,152.24,31.86,152.241,31.861,152.241z"/>
<path d="M168.823,298.792c4.292-6.229,9.24-12.008,15.437-17.03c-6.197,5.022-11.145,10.802-15.437,17.027
	c-14.384,20.859-25.411,43.266-29.56,68.566c-1.002,6.107-1.845,12.248-1.821,18.411c-0.023-6.161,0.82-12.302,1.821-18.407
	C143.411,342.057,154.439,319.652,168.823,298.792z"/>
<path d="M165.744,419.83c11.086-0.729,18.258-6.947,24.869-14.275c9.83-10.896,16.722-23.588,22.732-36.807
	c9.995-21.982,18.584-44.52,24.09-68.053c4.278-18.283,7.602-36.791,11.358-55.195c3.892-19.06,7.794-38.116,11.69-57.175
	c0.005-0.025,0.011-0.053,0.016-0.079c-0.005,0.025-0.011,0.051-0.016,0.076c-3.896,19.059-7.799,38.115-11.69,57.175
	c-3.757,18.405-7.08,36.912-11.358,55.194c-5.506,23.533-14.095,46.069-24.091,68.054c-6.011,13.219-12.901,25.911-22.732,36.807
	c-6.611,7.328-13.783,13.546-24.869,14.275c-8.084-3.568-13.279-10.454-15.436-19.091c-0.514-2.057-0.913-4.129-1.211-6.211
	c0.298,2.084,0.697,4.157,1.211,6.215C152.465,409.376,157.66,416.261,165.744,419.83z"/>
<path d="M185.715,288.229c-0.001-0.297-0.026-0.598-0.077-0.903c0,0.001,0,0.001,0,0.001
	C185.688,287.632,185.713,287.932,185.715,288.229z"/>
<path d="M315.25,221.5c0.375,0.125,0.68,0.388-1.312,1.438c0.139,0.128,0.259,0.243,0.393,0.367c0.651-0.616,1.334-1.261,2.346-2.22
	c-1.57,0.219-2.495,0.348-3.18,0.442C314.181,221.432,313.68,221.718,315.25,221.5z"/>
<path d="M320.113,238.808c0.108-3.507,0.162-5.709-0.176-7.442C320.258,233.176,320.218,235.434,320.113,238.808z"/>
<path d="M149.514,265.341C149.514,265.341,149.514,265.341,149.514,265.341c-1.696,6.63-3.205,13.267-5.104,19.787
	c-3.064,10.521-6.559,20.919-9.551,31.46c-3.082,10.857-6.039,23.27-5.919,36.533c0,0,0,0,0.001,0
	c-0.12-13.266,2.838-25.676,5.919-36.534c2.992-10.541,6.487-20.938,9.551-31.46C146.31,278.605,147.819,271.97,149.514,265.341z"/>
<rect x="263.434" y="173.878" width="0.005" height="0.003"/>
<path d="M177.653,214.569L177.653,214.569C177.653,214.569,177.653,214.568,177.653,214.569c-1.252-7.859-7.747-14.356-14.25-14.428
	c0,0,0,0-0.001,0.001l0,0C169.905,200.213,176.401,206.71,177.653,214.569z"/>
<path d="M151.764,256.899c0.014-0.004,0.029-0.008,0.043-0.012C151.793,256.891,151.779,256.894,151.764,256.899
	c1.759-10.873,3.344-21.404,9.009-31.04h0C155.107,235.495,153.523,246.027,151.764,256.899z"/>
<path d="M189.259,281.731c-1.215,1.86-3.091,2.613-3.619,5.59C186.9,285.375,188.048,283.6,189.259,281.731z"/>
<polygon points="189.275,281.707 189.275,281.707 189.275,281.707 "/>
<path d="M122.993,234.735c2.265,0.802,4.929,2.215,6.766,3.505C127.243,235.951,126.073,235.31,122.993,234.735z"/>
<rect x="179.924" y="123.147" width="0.003" height="0"/>
<path d="M180.103,122.682c0.034-0.255,0.033-0.253,0.016-0.132c-0.004,0.034-0.01,0.078-0.019,0.136
	C180.101,122.685,180.102,122.684,180.103,122.682z"/>
<path d="M176.872,183.921c-4.384-14.46-3.381-28.943-0.471-43.449c0.915-4.559,2.142-9.053,3.144-13.595
	c0.268-1.212,0.274-2.482,0.381-3.73c-0.001,0-0.001,0.001-0.002,0.001c-0.107,1.248-0.112,2.517-0.381,3.728
	c-1.002,4.542-2.229,9.036-3.144,13.595c-2.91,14.506-3.914,28.989,0.471,43.449c2.3,7.586,8.635,14.27,16.349,17.425
	C185.506,198.189,179.172,191.506,176.872,183.921z"/>
<path d="M242.625,140.238c2.446,3.263,1.39,6.758,0.387,9.979c1.005-3.221,2.061-6.716-0.386-9.981
	c-1.674,1.243-3.304,2.943-4.841,4.953C239.322,143.18,240.952,141.481,242.625,140.238z"/>
<polygon points="180.1,122.687 180.1,122.688 180.099,122.692 180.102,122.687 180.103,122.683 180.1,122.687 "/>
<path d="M280.87,185.308c-2.902-4.707-2.585-10.228-2.242-15.519c0.735-11.355,3.883-22.241,6.872-33.146
	c0.43-1.567,0.846-3.138,1.432-5.311c-0.001,0-0.002,0.001-0.002,0.001c-0.586,2.172-1.002,3.742-1.432,5.31
	c-2.989,10.905-6.137,21.791-6.872,33.146c-0.343,5.291-0.66,10.812,2.242,15.519c3.095,5.021,8.243,7.708,13.788,10.757
	c0,0,0,0,0-0.001C289.112,193.016,283.965,190.329,280.87,185.308z"/>
<polygon points="345.416,101.313 345.416,101.313 345.416,101.313 "/>
<polygon points="324.617,45.247 324.607,45.245 324.617,45.248 "/>
<path d="M179.323,123.559c0.188-0.143,0.402-0.273,0.601-0.411v0C179.726,123.285,179.511,123.416,179.323,123.559z"/>
<path d="M207.484,198.745c-0.015-0.364-0.003-0.71,0.021-1.047c-0.231,0.561-0.432,1.021-0.621,1.334
	C207.084,198.937,207.286,198.84,207.484,198.745z"/>
<path d="M140.322,182.509c0.215,1.087,0.422,2.134,0.643,3.247c0,0.001,0.001,0.001,0.002,0.002c0,0,0-0.001,0-0.001
	C140.979,184.297,140.66,183.282,140.322,182.509z"/>
<path d="M212.514,189.847C212.514,189.847,212.513,189.847,212.514,189.847c3.873,2.269,7.377,4.5,11.043,6.421
	c1.775,0.931,3.474,1.615,5.141,1.986c-1.667-0.371-3.364-1.055-5.139-1.986C219.893,194.346,216.391,192.115,212.514,189.847z"/>
<path d="M145.132,153.638c0.821-17.292,1.656-34.598,3.154-51.84c2.074-23.871,5.659-47.542,11.104-70.913
	c1.279-5.492,1.974-11.123,2.853-16.703c0.009-0.059,0.014-0.126,0.02-0.19c-0.009,0.062-0.012,0.126-0.021,0.189
	c-0.878,5.58-1.573,11.211-2.853,16.703c-5.445,23.371-9.03,47.042-11.104,70.913c-1.498,17.242-2.333,34.548-3.154,51.84
	c-0.438,9.225-1.638,18.2-5.321,26.278c0,0.001,0,0.002,0,0.003c0,0,0.001-0.001,0.001-0.002
	C143.5,173.333,144.694,162.862,145.132,153.638z"/>
<path d="M341.623,113.441c0.42-0.247,0.789-0.581,1.252-0.929c-0.146-0.716-0.292-1.434-0.453-2.223
	c0.132,0.692,0.101,0.833,0.246,1.546C342.205,112.184,342.041,113.184,341.623,113.441z"/>
<path d="M242.253,152.501c-2.742,8.138-6.777,15.674-11.225,22.996C235.476,168.176,239.512,160.64,242.253,152.501z"/>
<path d="M168.352,118.586c3.525-5.638,7.055-11.273,10.663-16.857c0.882-1.366,2.071-2.535,3.327-4.044c0,0,0.001,0,0.001-0.001
	c-0.001,0-0.002,0-0.003,0c-1.256,1.509-2.444,2.678-3.327,4.044c-3.608,5.584-7.138,11.22-10.663,16.857
	c-1.02,1.63-1.87,3.388-4.186,4.343c0,0,0,0.001,0,0.002C166.483,121.975,167.332,120.217,168.352,118.586z"/>
<path d="M236.76,146.589c0.043-0.062,0.088-0.121,0.131-0.183C236.848,146.468,236.803,146.526,236.76,146.589z"/>
<path d="M164.03,9.881c-0.474-0.226-0.975-0.43-1.503-0.613c0,0,0,0,0,0.001c0,0,0.001,0,0.002,0
	C163.056,9.452,163.557,9.656,164.03,9.881z"/>
<path d="M312.359,109.43c-0.119,0.03-0.236,0.059-0.356,0.088c0,0,0,0.001,0,0.001C312.119,109.491,312.242,109.459,312.359,109.43z
	"/>
<path d="M197.196,103.787c-0.479-3.32-2.7-5.139-5.927-5.629c-0.001,0-0.003,0-0.004,0c0.002,0,0.004,0.001,0.006,0.001
	C194.448,98.902,196.709,100.499,197.196,103.787z"/>
<path d="M315.398,43.004c0,0-0.001,0-0.002,0c-0.002,0.007-0.005,0.013-0.007,0.02C315.393,43.017,315.395,43.012,315.398,43.004
	C315.398,43.005,315.398,43.005,315.398,43.004z"/>
<path d="M208.866,184.71c-2.978-10.646-3.401-21.02,1.457-30.867c6.165-12.496,14.587-23.408,24.985-32.74
	c0.486-0.437,1.11-0.72,1.584-1.02c6.049,0.187,11.517,1.734,15.739,4.404c-4.224-2.67-9.691-4.219-15.741-4.405
	c-0.474,0.3-1.097,0.583-1.584,1.02c-10.397,9.332-18.82,20.244-24.986,32.74c-4.857,9.848-4.434,20.222-1.456,30.867
	c-3.392,2.89-7.072,5.579-12.34,6.725c0,0,0.001,0.001,0.001,0.001C198.669,192.833,205.477,187.6,208.866,184.71z"/>
<path d="M275.827,118.212c8.289-6.886,14.345-15.665,20.458-24.398c3.099-4.426,4.823-9.375,6.484-14.449
	c3.309-10.1,6.946-20.091,10.449-30.126c0.011-0.031,0.018-0.057,0.028-0.087c-0.01,0.029-0.021,0.058-0.03,0.086
	c-3.503,10.035-7.142,20.026-10.449,30.126c-1.661,5.074-3.387,10.023-6.484,14.449c-6.113,8.733-12.169,17.513-20.458,24.398
	c-5.505,4.572-11.56,8.238-18.27,10.588c0,0,0.001,0.001,0.001,0.001C264.268,126.45,270.323,122.784,275.827,118.212z"/>
<path d="M269.148,178.852c0-0.001,0-0.002,0-0.004c-0.03-0.026-0.059-0.051-0.089-0.077
	C269.089,178.797,269.119,178.826,269.148,178.852C269.148,178.852,269.148,178.852,269.148,178.852z"/>
<polygon points="295.711,508.868 295.711,508.867 295.71,508.868 "/>
<path d="M297.516,498.957L297.516,498.957c-0.003,0.02-0.019,0.039-0.033,0.058C297.497,498.996,297.513,498.977,297.516,498.957z"
	/>
<path d="M315.29,437.564c-1.412,2.495-2.896,11.615-4.266,17.381C312.394,449.199,313.835,443.471,315.29,437.564z"/>
<path d="M340.206,240.507c-0.071,0.474-0.13,0.94-0.181,1.401C340.076,241.437,340.145,240.974,340.206,240.507z"/>
<path d="M318.178,427.773c-1.134,3.375-2.715,6.703-5.715,9.789C315.463,434.477,317.045,431.147,318.178,427.773z"/>
<path d="M361.776,213.761c0.076-0.118,0.154-0.233,0.229-0.362C361.93,213.52,361.855,213.642,361.776,213.761z"/>
<polygon points="290.776,266.06 290.781,266.064 290.783,266.062 290.782,266.062 "/>
<path d="M335.245,371.039c0,0,0-0.001,0.001-0.002c-0.479,0.728-0.912,1.471-1.306,2.228
	C334.334,372.509,334.766,371.766,335.245,371.039z"/>
<path d="M342.456,240.081c-0.479,0.643-1.254,1.067-2.461,2.064C339.939,242.746,340.983,242.059,342.456,240.081z"/>
<path d="M298.686,493.582c1.131-3.801,2.872-7.354,5.235-10.709c0.435-0.617,0.824-1.331,1.136-2.085
	c-0.312,0.753-0.701,1.466-1.135,2.083C301.559,486.227,299.816,489.781,298.686,493.582z"/>
<path d="M295.287,498.463c-0.368,0.352-0.445,1.217-0.384,2.298c0.027-0.76,0.135-1.523,0.383-2.296
	c0.747,0.399,1.266,0.677,1.719,0.919c0.209-0.169,0.384-0.261,0.464-0.345c-0.08,0.084-0.255,0.175-0.463,0.343
	C296.553,499.14,296.188,498.251,295.287,498.463z"/>
<path d="M288.145,497.921c0.395-7.2,0.799-14.453,1.96-21.554c-1.162,7.101-1.567,14.355-1.962,21.556
	c-0.225,4.094,0.508,8.219,2.562,12.053c0.001,0,0.002,0,0.003-0.001l-0.002-0.001C288.65,506.14,287.92,502.015,288.145,497.921z"
	/>
<path d="M337.036,360.995c0.101-0.294,0.216-0.58,0.352-0.856c0.844-1.726,1.576-3.482,2.229-5.263
	c-0.653,1.779-1.385,3.535-2.229,5.26C337.253,360.413,337.137,360.701,337.036,360.995z"/>
<path d="M318.87,364.777c5.887-21.12,11.335-42.362,17.101-63.519c3.449-12.655,7.15-25.243,10.747-37.86
	c0.67-2.351,1.381-4.688,2.351-7.971c-1.723,0.972-2.711,1.369-3.51,2.007c-4.088,3.271-7.438,3.442-11.629,0.295
	c-5.15-3.872-7.218-9.402-7.85-15.55c-0.589-5.737,0.68-11.242,2.528-16.639c0.39-1.138,0.812-2.259,1.242-3.375
	c-0.431,1.117-0.854,2.238-1.243,3.377c-1.85,5.396-3.117,10.901-2.528,16.639c0.632,6.147,2.698,11.678,7.85,15.55
	c4.189,3.147,7.541,2.977,11.629-0.295c0.799-0.638,1.787-1.035,3.51-2.007c-0.97,3.281-1.681,5.62-2.351,7.97
	c-3.597,12.617-7.298,25.205-10.747,37.86c-5.766,21.155-11.214,42.397-17.101,63.519c-2.984,10.709-6.741,21.201-9.962,31.85
	c-4.126,13.637-7.764,27.395-10.982,41.25c3.219-13.855,6.857-27.614,10.983-41.252C312.129,385.98,315.886,375.486,318.87,364.777z
	"/>
<path d="M380.689,208.462c-0.644,1.476-0.893,2.964-1.521,5.609C379.671,212.191,380.169,210.314,380.689,208.462z"/>
<path d="M290.759,248.119c-0.005,0.015-0.01,0.028-0.015,0.043c-0.218,0.708-0.414,1.425-0.607,2.144
	c0.193-0.719,0.39-1.437,0.608-2.145C290.749,248.147,290.754,248.133,290.759,248.119z"/>
<path d="M368.801,204.62c2.086,0.119,4.553,0.62,6.707,1.269C373.299,205.062,371.082,204.625,368.801,204.62z"/>
<path d="M355.847,199.753c-1.087-1.515-2.396-2.376-3.815-2.899C353.541,197.544,354.936,198.494,355.847,199.753z"/>
<path d="M301.011,248.419c-0.438,1.029-0.87,2.062-1.309,3.09C300.141,250.481,300.572,249.449,301.011,248.419z"/>
<path d="M288.352,259.698c0.001-0.008,0.002-0.016,0.003-0.024C288.354,259.682,288.353,259.69,288.352,259.698z"/>
<path d="M288.646,257.488c0.156-1.026,0.335-2.05,0.539-3.072C288.98,255.438,288.802,256.461,288.646,257.488z"/>
<path d="M291.311,246.474c0.885-2.478,2.159-5.441,3.511-8.308C293.463,240.874,292.283,243.628,291.311,246.474z"/>
<path d="M342.383,110.097c0.014,0.067,0.025,0.126,0.039,0.192c-0.012-0.062-0.022-0.12-0.037-0.191
	c1.065-1.193,2.616-1.263,3.033-3.396c0-1.978,1.416-4.2,0-5.388c0,0-0.002,0-0.002-0.001c0,1.754,0,3.41,0,5.388
	C344.552,107.669,343.448,108.905,342.383,110.097z"/>
<path d="M323.806,58.708c-3.914,11.677-5.905,23.802-8.895,35.691c-1.093,4.348-1.962,8.753-2.893,13.141
	c-0.129,0.606-0.018,1.263-0.018,1.978c0.001,0,0.001,0,0.002,0c0-0.715-0.111-1.372,0.019-1.977
	c0.93-4.388,1.799-8.793,2.892-13.141c2.99-11.888,4.981-24.013,8.895-35.691c1.395-4.156,1.681-8.684,0.812-13.461
	c-0.001,0-0.001,0-0.002,0C325.486,50.024,325.2,54.552,323.806,58.708z"/>
<path d="M197.672,111.379c0.062,1.776,0.014,3.558-0.333,5.248c-2.098,12.602-4.302,25.189-6.252,37.815
	c-1.045,6.764-1.136,13.615-0.142,20.408c0.552,3.767,1.281,7.542,2.369,11.183c0.578,1.932,2.094,3.586,3.209,5.401l0.001,0
	c-1.114-1.814-2.63-3.467-3.208-5.399c-1.089-3.641-1.817-7.416-2.369-11.183c-0.994-6.793-0.902-13.643,0.142-20.408
	c1.949-12.626,4.154-25.212,6.252-37.815c0.345-1.69,0.394-3.472,0.333-5.248c-0.08-2.318-0.219-4.636-0.382-6.95
	c-0.017-0.229-0.064-0.429-0.096-0.643c0.03,0.214,0.078,0.415,0.094,0.642C197.453,106.743,197.592,109.061,197.672,111.379z"/>
<path d="M140.322,182.509c-0.163-0.822-0.329-1.665-0.513-2.591C139.214,180.682,139.791,181.294,140.322,182.509z"/>
<path d="M169.42,17.984c0.222,7.641,0.495,15.298,0.239,22.932c-0.256,7.64-1.106,15.261-1.747,22.886
	c-0.809,9.618-1.85,19.219-2.46,28.848c-0.631,9.953-0.866,19.931-1.29,30.279c0.001,0,0.001,0,0.002-0.001
	c0.424-10.346,0.659-20.325,1.29-30.277c0.61-9.629,1.651-19.231,2.46-28.848c0.641-7.625,1.491-15.246,1.747-22.886
	c0.256-7.634-0.017-15.291-0.239-22.932c-0.114-3.901-2.077-6.527-5.392-8.104C167.344,11.458,169.307,14.083,169.42,17.984z"/>
<path d="M338.588,115.169c-8.27,7.795-19.059,9.471-29.406,12.236c-0.152,0.041-0.285,0.164-1.126,0.664
	c-4.45,18.997-9.2,38.476-9.209,59.189c-2.788,1.674-3.969,4.685-4.19,8.806c0.001,0,0.001,0,0.002,0.001
	c2.01,0.602,1.402-7.133,4.19-8.807c0.009-20.712,4.759-40.192,9.209-59.189c0.841-0.5,0.974-0.623,1.126-0.664
	c10.347-2.764,21.136-4.441,29.406-12.236c0.819-0.773,2.021-1.133,3.024-1.72c0.003-0.002,0.006-0.006,0.009-0.008
	c-0.004,0.002-0.007,0.006-0.011,0.008C340.609,114.036,339.407,114.397,338.588,115.169z"/>
<path d="M257.555,128.8C257.555,128.8,257.556,128.8,257.555,128.8c-1.342-1.654-3.004-3.099-4.923-4.312
	C254.551,125.701,256.213,127.146,257.555,128.8z"/>
<path d="M313.247,49.152c0.692-1.986,1.389-3.974,2.143-6.128C313.86,46.123,313.917,47.194,313.247,49.152z"/>
<path d="M312.359,109.43c11.097-2.725,21.906-5.378,33.057-8.117C343.836,100.184,323.651,106.626,312.359,109.43z"/>
<path d="M315.398,43.004c3.11,0.757,6.109,1.487,9.209,2.24C321.503,44.484,317.001,41.004,315.398,43.004z"/>
<path d="M162.263,13.992c0.216-1.52,0.177-3.083,0.264-4.723C161.541,9.016,162.418,12.335,162.263,13.992z"/>
<path d="M261.006,143.31c-1.434,3.032-2.32,6.338-1.927,9.567c0.296,2.437,0.12,4.534-0.82,6.67
	c-4.079,9.268-8.104,18.56-12.315,27.767c-0.883,1.927-2.312,3.671-3.75,5.265c-4.826,5.353-9.049,6.664-13.496,5.675
	c4.448,0.99,8.671-0.321,13.498-5.675c1.438-1.594,2.867-3.338,3.75-5.265c4.211-9.207,8.236-18.499,12.315-27.767
	c0.941-2.136,1.116-4.233,0.82-6.67c-0.394-3.229,0.493-6.535,1.927-9.567c9.935-0.909,17.654-6.368,25.922-11.977
	c0,0,0-0.001,0-0.001C278.662,136.942,270.941,142.402,261.006,143.31z"/>
<path d="M207.506,197.698c0.833-2.021,2.102-5.345,5.007-7.85l-0.001,0C210.122,191.907,207.759,194.062,207.506,197.698z"/>
<path d="M193.219,201.345c1.78,0.729,3.634,1.269,5.528,1.589c2.853-1.368,5.019-2.209,7.921-3.6
	c0.072-0.075,0.145-0.181,0.217-0.302c-2.714,1.3-5.482,2.627-8.14,3.901C196.852,202.613,194.998,202.073,193.219,201.345z"/>
<path d="M178.987,123.922c-5.296,10.916-10.703,21.783-15.728,32.824c-1.339,2.942-1.633,6.402-2.154,9.666
	c-0.731,4.586-0.784,9.324-1.939,13.787c-1.361,5.257-3.589,10.289-5.549,15.72c-5.588-2.317-9.273-6.272-12.65-10.161
	c-0.129,1.913,11.034,10.909,12.652,10.162c1.381-0.753,4.188-10.463,5.549-15.72c1.154-4.463,1.207-9.201,1.939-13.787
	c0.521-3.264,0.815-6.724,2.154-9.666c5.025-11.041,10.433-21.908,15.729-32.824c0.069-0.142,0.194-0.256,0.334-0.364
	C179.183,123.667,179.057,123.78,178.987,123.922z"/>
<path d="M182.343,97.684c3.011,0.139,6.009,0.031,8.921,0.474C189.158,97.665,183.67,96.503,182.343,97.684z"/>
<path d="M179.926,123.146c0.04-0.028,0.084-0.055,0.122-0.084l-0.108-0.098C179.934,123.024,179.931,123.085,179.926,123.146z"/>
<path d="M180.102,122.687c0,0.001,0,0.001,0,0.001C180.288,122.372,180.228,122.473,180.102,122.687z"/>
<path d="M179.926,123.146c0.04-0.028,0.084-0.055,0.122-0.084C180.01,123.091,179.966,123.118,179.926,123.146
	C179.926,123.146,179.926,123.146,179.926,123.146z"/>
<path d="M140.967,185.757c0,0,0,0.001,0,0.001c3.377,3.888,7.062,7.843,12.65,10.161c1.96-5.431,4.188-10.463,5.549-15.72
	c1.155-4.463,1.208-9.201,1.939-13.787c0.521-3.264,0.815-6.724,2.154-9.666c5.025-11.041,10.432-21.908,15.728-32.824
	c0.07-0.142,0.196-0.255,0.336-0.363c0.188-0.144,0.402-0.274,0.601-0.412c0.005-0.062,0.008-0.124,0.014-0.186
	c0.058-0.097,0.114-0.193,0.162-0.274c0.027-0.196,0.042-0.3,0.019-0.137c0.017-0.121,0.018-0.124-0.016,0.132
	c0.043-0.073,0.077-0.131,0.097-0.164c0.022-0.039,0.021-0.036,0,0c-0.017,0.029-0.046,0.078-0.097,0.165c0,0.001,0,0.002,0,0.004
	c0.126-0.214,0.186-0.315,0,0.001c0,0,0,0,0-0.001c-0.001,0.002-0.002,0.004-0.003,0.005c-0.015,0.107-0.033,0.237-0.051,0.37
	c-0.038,0.03-0.082,0.056-0.122,0.084c-0.107,1.249-0.113,2.519-0.381,3.73c-1.002,4.542-2.229,9.036-3.144,13.595
	c-2.91,14.506-3.913,28.989,0.471,43.449c2.3,7.585,8.634,14.269,16.347,17.424c1.779,0.728,3.633,1.269,5.526,1.588
	c2.657-1.274,5.426-2.601,8.14-3.901c0.189-0.313,0.39-0.773,0.621-1.334c0.253-3.635,2.616-5.791,5.006-7.851l0.001,0
	c0,0,0.001,0,0.001-0.001c3.877,2.269,7.379,4.499,11.045,6.421c1.774,0.931,3.472,1.615,5.139,1.986
	c4.447,0.989,8.67-0.322,13.496-5.675c1.438-1.594,2.867-3.338,3.75-5.265c4.211-9.207,8.236-18.499,12.315-27.767
	c0.94-2.136,1.116-4.233,0.82-6.67c-0.394-3.229,0.493-6.535,1.927-9.567c9.936-0.908,17.656-6.368,25.924-11.978
	c0,0,0,0.001,0,0.001c0,0,0.001-0.001,0.002-0.001c-0.586,2.173-1.002,3.744-1.432,5.311c-2.989,10.905-6.137,21.791-6.872,33.146
	c-0.343,5.291-0.66,10.812,2.242,15.519c3.095,5.021,8.242,7.708,13.786,10.756c0.222-4.122,1.402-7.132,4.19-8.806
	c0.009-20.713,4.759-40.192,9.209-59.189c0.841-0.5,0.974-0.623,1.126-0.664c10.348-2.765,21.137-4.441,29.406-12.236
	c0.819-0.772,2.021-1.133,3.024-1.72c0.004-0.002,0.007-0.005,0.011-0.008c0.418-0.257,0.582-1.258,1.045-1.606
	c-0.146-0.713-0.114-0.854-0.246-1.546c-0.014-0.066-0.025-0.125-0.039-0.192c1.065-1.192,2.169-2.428,3.033-3.396
	c0-1.978,0-3.634,0-5.388l0,0c-11.15,2.738-21.96,5.392-33.057,8.117c-0.117,0.029-0.24,0.061-0.356,0.089c0,0,0-0.001,0-0.001
	c-0.001,0-0.001,0-0.002,0c0-0.715-0.111-1.372,0.018-1.978c0.931-4.388,1.8-8.793,2.893-13.141
	c2.989-11.889,4.98-24.014,8.895-35.691c1.395-4.156,1.681-8.684,0.812-13.46c-0.003-0.001-0.006-0.002-0.01-0.003
	c-3.1-0.753-6.099-1.483-9.209-2.24c0,0,0,0,0,0c-0.004,0.007-0.006,0.012-0.009,0.019c-0.754,2.154-1.45,4.142-2.143,6.128
	c-0.011,0.03-0.018,0.057-0.028,0.087c-3.503,10.035-7.141,20.026-10.449,30.126c-1.661,5.074-3.386,10.023-6.484,14.449
	c-6.113,8.733-12.169,17.512-20.458,24.398c-5.504,4.572-11.56,8.238-18.271,10.589c0,0-0.001-0.001-0.001-0.001
	c0,0-0.001,0-0.001,0c-1.342-1.654-3.004-3.099-4.923-4.312c-4.223-2.67-9.69-4.218-15.739-4.404c-0.474,0.3-1.098,0.583-1.584,1.02
	c-10.398,9.332-18.82,20.244-24.985,32.74c-4.858,9.847-4.435,20.221-1.457,30.867c-3.39,2.89-10.197,8.123-12.341,6.725
	c0,0-0.001-0.001-0.001-0.001l-0.001,0c-1.115-1.815-2.631-3.469-3.209-5.401c-1.088-3.641-1.817-7.416-2.369-11.183
	c-0.994-6.793-0.903-13.644,0.142-20.408c1.95-12.626,4.154-25.213,6.252-37.815c0.347-1.69,0.396-3.472,0.333-5.248
	c-0.08-2.318-0.219-4.636-0.382-6.95c-0.016-0.227-0.063-0.428-0.094-0.642c-0.487-3.288-2.749-4.885-5.925-5.628
	c-0.002,0-0.004-0.001-0.006-0.001c-2.913-0.442-5.91-0.334-8.921-0.474c0,0-0.001,0-0.001,0.001
	c-1.256,1.509-2.445,2.678-3.327,4.044c-3.608,5.584-7.138,11.219-10.663,16.857c-1.02,1.631-1.869,3.389-4.188,4.344
	c0,0,0-0.001,0-0.002c0,0-0.001,0-0.002,0.001c0.424-10.348,0.659-20.326,1.29-30.279c0.61-9.629,1.651-19.23,2.46-28.848
	c0.641-7.625,1.491-15.246,1.747-22.886c0.256-7.634-0.017-15.291-0.239-22.932c-0.113-3.9-2.076-6.526-5.39-8.103
	c-0.473-0.225-0.974-0.429-1.501-0.612c0,0-0.001,0-0.002,0c-0.087,1.64-0.048,3.203-0.264,4.723c-0.006,0.064-0.01,0.131-0.02,0.19
	c-0.879,5.58-1.574,11.211-2.853,16.703c-5.445,23.371-9.03,47.042-11.104,70.913c-1.498,17.242-2.333,34.548-3.154,51.84
	c-0.438,9.224-1.632,19.695-5.321,26.278c0,0.001-0.001,0.001-0.001,0.002c0.184,0.926,0.35,1.769,0.513,2.591
	C140.66,183.282,140.979,184.297,140.967,185.757z M236.76,146.589c0.043-0.062,0.088-0.121,0.131-0.183
	c0.295-0.417,0.593-0.822,0.895-1.216c1.537-2.01,3.167-3.71,4.841-4.953c2.446,3.265,1.391,6.76,0.386,9.981
	c-0.056,0.178-0.111,0.356-0.166,0.533c-0.183,0.59-0.396,1.166-0.593,1.75c-2.741,8.139-6.777,15.675-11.225,22.996
	c-0.741,1.221-1.492,2.438-2.251,3.649c-0.217,0.347-0.766,0.489-1.202,0.751c-0.297-1.449-0.431-3.046-0.419-4.747
	C227.216,166.224,231.273,154.475,236.76,146.589z"/>
<path d="M179.94,122.964l-0.002-0.002c-0.006,0.062-0.009,0.124-0.014,0.186c0.001,0,0.001-0.001,0.002-0.001
	C179.931,123.085,179.934,123.024,179.94,122.964z"/>
<path d="M180.048,123.062c0.019-0.133,0.037-0.263,0.051-0.37c0,0,0,0,0,0C180.084,122.799,180.066,122.929,180.048,123.062z"/>
<rect x="180.097" y="122.69" width="0.004" height="0"/>
<path d="M31.861,152.241c0.582,0.862,1.108,1.639,1.717,2.54C32.977,153.874,33.493,152.335,31.861,152.241z"/>
<path d="M92.304,171.138c2.54-2.148,5.147-4.261,7.411-6.682c11.396-12.188,11.134-24.212,0.552-37.567
	c-5.315-6.707-12.214-11.749-19.509-16.194c-3.126-1.904-6.288-3.751-9.39-5.692c-6.454-4.039-11.595-9.424-15.929-15.639
	c-3.91-5.606-4.918-11.717-4.224-18.487c1.284-12.529,7.177-22.687,15.355-31.78c10.367-11.527,23.013-20.111,36.305-27.843
	c2.615-1.522,5.068-1.297,8.047-0.469c2.379,0.662,4.709,1.383,6.952,2.263c-2.245-0.88-4.576-1.603-6.957-2.265
	c-2.979-0.828-5.432-1.052-8.047,0.469c-13.288,7.735-25.935,16.319-36.301,27.845c-8.177,9.092-14.07,19.251-15.355,31.78
	c-0.694,6.769,0.314,12.881,4.224,18.487c4.335,6.215,9.475,11.6,15.929,15.639c3.102,1.941,6.265,3.788,9.39,5.692
	c7.296,4.445,14.194,9.487,19.509,16.194c10.582,13.355,10.844,25.379-0.552,37.567C97.45,166.877,94.844,168.991,92.304,171.138
	c-12.774,10.796-27.015,17.292-43.385,17.204C65.29,188.43,79.531,181.935,92.304,171.138z"/>
<path d="M34.824,138.212c0,1.494,0,2.877,0,4.216C35.141,140.11,35.656,138.288,34.824,138.212z"/>
<path d="M34.823,146.972c-0.938,1.667-1.9,3.38-2.943,5.234C32.928,150.363,34.333,149.486,34.823,146.972z"/>
<path d="M103.221,69.298c-0.657-2.788,0.491-5.13,2.224-7.267c1.258-1.551,2.488-3.153,3.931-4.521
	c5.038-4.773,6.884-11.198,9.085-17.416c0.584-1.65,0.484-3.544,0.696-5.316c-0.937-0.804-1.901-1.324-2.87-1.61
	c0.967,0.287,1.929,0.806,2.864,1.608c-0.212,1.772-0.112,3.666-0.696,5.316c-2.2,6.218-4.046,12.643-9.085,17.416
	c-1.443,1.369-2.673,2.97-3.931,4.521c-1.733,2.137-2.881,4.48-2.224,7.267c1.233,2.483,2.738,4.452,4.92,5.35
	C105.956,73.747,104.453,71.779,103.221,69.298z"/>
<path d="M21.231,191.545c-3.444-2.298-5.568-5.697-7.194-9.326c-1.362-3.038-1.774-6.209-0.636-9.665
	c4.024-12.218,10.425-22.892,19.56-32.446c-9.135,9.554-15.537,20.228-19.562,32.445c-1.138,3.456-0.726,6.627,0.636,9.665
	c1.626,3.629,3.75,7.028,7.194,9.326c2.903,1.939,5.786,3.908,8.715,5.807c2.582,1.674,5.208,3.15,7.876,4.42
	c-2.668-1.27-5.294-2.746-7.875-4.419C27.017,195.452,24.134,193.483,21.231,191.545z"/>
<path d="M74.753,206.027c26.57-5.905,44.38-21.581,51.61-48.339c1.51-5.587,1.276-11.193,0.062-16.787
	c-2.252-10.375-8.462-18.318-15.941-25.38c-7.415-7.003-15.907-12.59-24.461-18.087c-3.775-2.425-7.492-4.98-11.001-7.771
	c-5.012-3.988-6.195-9.262-4.151-15.236c0.802-2.345,1.666-4.729,2.921-6.847c6.694-11.295,15.231-21.003,26.061-28.46
	c3.502-2.41,7.602-4.037,11.585-5.631c1.562-0.625,3.213-0.808,4.85-0.322c0.969,0.287,1.933,0.807,2.87,1.61
	c-0.212,1.772-0.112,3.666-0.696,5.316c-2.201,6.218-4.047,12.643-9.085,17.416c-1.443,1.368-2.673,2.97-3.931,4.521
	c-1.733,2.137-2.881,4.479-2.224,7.267c1.231,2.481,2.735,4.449,4.915,5.348c1.309,0.538,2.862,0.691,4.747,0.337
	c7.209-5.159,13.677-11.381,18.972-18.683c1.679-2.314,2.672-5.404,3.115-8.272c0.656-4.243,0.308-8.633,0.809-12.91
	c0.82-6.99-2.857-11.672-7.571-15.916c-3.096-2.787-6.595-4.689-10.334-6.154c-2.243-0.879-4.573-1.601-6.952-2.263
	c-2.979-0.828-5.432-1.053-8.047,0.469C89.583,18.986,76.937,27.57,66.57,39.097c-8.178,9.093-14.071,19.251-15.355,31.78
	c-0.694,6.77,0.314,12.881,4.224,18.487c4.334,6.215,9.475,11.6,15.929,15.639c3.102,1.941,6.264,3.788,9.39,5.692
	c7.295,4.445,14.194,9.487,19.509,16.194c10.582,13.355,10.844,25.379-0.552,37.567c-2.264,2.421-4.871,4.534-7.411,6.682
	c-12.773,10.796-27.015,17.292-43.385,17.204c-2.339-0.012-4.721-0.159-7.149-0.447c-3.938-0.467-7.979-1.334-10.213-5.323
	c-3.176-5.669-5.132-11.53-2.448-17.983c1.144-2.751,1.493-4.208,2.725-6.922c0.272-0.603,1.524-2.421,1.75-2.875
	c-0.002-0.003-0.003-0.008-0.005-0.011c-0.609-0.901-1.135-1.678-1.717-2.54c-0.001,0-0.001,0-0.002,0
	c0.007-0.012,0.014-0.022,0.021-0.034c1.042-1.854,2.005-3.567,2.943-5.234c0-0.002,0.001-0.004,0.001-0.006
	c-0.313-1.508-0.194-3.116,0-4.538c0-1.338,0-2.722,0-4.216c-0.633,0.627-1.254,1.259-1.863,1.896
	c-9.135,9.555-15.536,20.229-19.56,32.446c-1.138,3.456-0.726,6.627,0.636,9.665c1.626,3.629,3.75,7.028,7.194,9.326
	c2.903,1.938,5.786,3.907,8.715,5.807c2.581,1.673,5.206,3.149,7.875,4.419C49.383,207.276,61.75,208.918,74.753,206.027z"/>
<path d="M368.801,204.62c-1.249-0.071-2.366-0.011-3.185,0.252c-0.812,0.235-1.97,5.697-3.611,8.526
	c1.581-2.515,2.368-5.595,3.61-8.524C366.696,204.684,367.754,204.617,368.801,204.62z"/>
<path d="M361.666,213.934c0.039-0.056,0.071-0.117,0.11-0.173c-0.037,0.056-0.072,0.119-0.109,0.171
	c-6.2,8.856-12.751,17.466-19.206,26.143c-0.002,0.002-0.003,0.004-0.005,0.006c0.001-0.001,0.003-0.002,0.004-0.004
	C348.915,231.4,355.466,222.789,361.666,213.934z"/>
<path d="M380.689,208.462c0-0.001,0-0.002,0.001-0.003c-0.329-0.748-2.509-1.766-5.183-2.571c1.72,0.643,3.438,1.501,5.182,2.573
	C380.689,208.461,380.689,208.462,380.689,208.462z"/>
<path d="M310.053,460.3c-1.037,4.009-2.113,8.013-3.353,11.961c-0.488,1.556-1.014,2.884-0.902,4.688
	c0.075,1.217-0.224,2.584-0.741,3.84c0.518-1.256,0.818-2.624,0.742-3.842c-0.112-1.804,0.414-3.132,0.902-4.688
	c1.24-3.949,2.316-7.952,3.353-11.961c0.448-1.733,0.544-3.557,0.959-5.301c0.004-0.017,0.008-0.035,0.012-0.052
	c-0.004,0.018-0.009,0.036-0.013,0.054C310.597,456.743,310.501,458.567,310.053,460.3z"/>
<path d="M297.925,437.879c-2.866,12.335-5.403,24.747-7.616,37.23c-0.074,0.418-0.136,0.839-0.204,1.258
	c0.068-0.419,0.13-0.839,0.204-1.256C292.521,462.628,295.059,450.215,297.925,437.879z"/>
<path d="M339.995,242.145C339.995,242.145,339.995,242.145,339.995,242.145c0.008-0.078,0.021-0.159,0.03-0.237
	C340.017,241.988,340.002,242.066,339.995,242.145C339.994,242.146,339.995,242.146,339.995,242.145z"/>
<path d="M340.206,240.507c2.426-16.102,16.274-39.708,15.696-40.686c-0.017-0.024-0.039-0.044-0.056-0.068
	c0.018,0.025,0.037,0.045,0.055,0.07C349.963,212.812,342.23,225.19,340.206,240.507z"/>
<path d="M315.29,437.564c0-0.001,0.001-0.001,0.001-0.002c0.022-1-1.512,0-2.828,0C313.779,437.562,314.214,437.562,315.29,437.564
	L315.29,437.564z"/>
<path d="M295.711,508.867L295.711,508.867c0.528-0.766-0.644-5.228-0.808-8.106C294.809,503.442,295.781,506.076,295.711,508.867z"
	/>
<path d="M376.278,224.007c-8.794,26.139-17.308,52.357-23.612,79.238c-2.76,11.765-5.473,23.543-8.451,35.254
	c-1.396,5.493-2.64,11.038-4.598,16.377c1.959-5.34,3.203-10.885,4.599-16.379c2.978-11.711,5.691-23.489,8.451-35.254
	c6.304-26.881,14.818-53.098,23.612-79.238c1.556-4.624,2.358-7.692,2.89-9.933C378.284,217.393,377.381,220.731,376.278,224.007z"
	/>
<path d="M352.031,196.854c-3.433-1.572-7.442-1.816-7.617-1.361c-5.834,8.475-10.912,17.208-14.563,26.674
	c3.652-9.465,8.729-18.197,14.562-26.672C346.876,196.041,349.609,195.96,352.031,196.854z"/>
<path d="M335.246,371.037L335.246,371.037c0.588-0.891,0.581-2.192,0.778-3.316c0.387-2.223,0.31-4.663,1.012-6.726
	c-0.703,2.062-0.626,4.504-1.013,6.728C335.826,368.847,335.833,370.147,335.246,371.037z"/>
<path d="M295.71,508.868c-1.582,0.35-3.196,0.708-5.003,1.106C291.07,510.314,294,510.686,295.71,508.868z"/>
<path d="M297.517,498.955c0.252-1.85,0.652-3.635,1.169-5.373c-0.517,1.738-0.918,3.524-1.17,5.375
	C297.516,498.956,297.517,498.956,297.517,498.955z"/>
<path d="M297.482,499.015c-0.006,0.008-0.006,0.017-0.014,0.024C297.477,499.031,297.477,499.022,297.482,499.015z"/>
<path d="M324.695,402.941c-1.694,6.359-3.106,12.795-4.861,19.136c-0.523,1.891-1.02,3.8-1.656,5.696
	c0.637-1.896,1.134-3.807,1.657-5.698c1.755-6.341,3.167-12.777,4.861-19.136c1.147-4.309,2.442-8.584,3.821-12.826
	c1.822-5.606,2.671-11.554,5.423-16.849c-2.753,5.295-3.602,11.243-5.424,16.851C327.138,394.357,325.843,398.632,324.695,402.941z"
	/>
<path d="M352.666,303.245c6.305-26.881,14.818-53.099,23.612-79.238c1.103-3.275,2.006-6.614,2.891-9.935
	c0.628-2.645,0.877-4.134,1.521-5.609c0,0,0-0.001,0-0.001c-1.744-1.072-3.462-1.93-5.182-2.573
	c-2.154-0.648-4.621-1.15-6.707-1.269c-1.047-0.002-2.104,0.064-3.186,0.254c-1.242,2.93-2.029,6.009-3.61,8.524
	c-0.074,0.129-0.152,0.245-0.229,0.362c-0.039,0.057-0.071,0.117-0.11,0.173c-6.2,8.855-12.751,17.466-19.206,26.143
	c-0.001,0.001-0.003,0.002-0.004,0.004c-1.473,1.978-2.517,2.665-2.461,2.064c0,0-0.001,0-0.001,0.001
	c0.008-0.08,0.022-0.158,0.031-0.238c0.051-0.46,0.109-0.927,0.181-1.401c2.024-15.317,9.757-27.695,15.695-40.684
	c-0.018-0.025-0.037-0.045-0.055-0.07c-0.911-1.259-2.306-2.208-3.815-2.899c-2.422-0.894-5.155-0.812-7.618-1.359
	c-5.833,8.475-10.91,17.207-14.562,26.672c-0.431,1.116-0.853,2.237-1.242,3.375c-1.849,5.397-3.117,10.902-2.528,16.639
	c0.632,6.148,2.699,11.678,7.85,15.55c4.19,3.147,7.541,2.976,11.629-0.295c0.799-0.638,1.787-1.035,3.51-2.007
	c-0.97,3.282-1.681,5.62-2.351,7.971c-3.597,12.617-7.298,25.205-10.747,37.86c-5.766,21.156-11.214,42.398-17.101,63.519
	c-2.984,10.709-6.741,21.203-9.962,31.85c-4.126,13.638-7.765,27.396-10.983,41.252c-2.866,12.336-5.403,24.749-7.616,37.232
	c-0.074,0.417-0.136,0.837-0.204,1.256c-1.161,7.101-1.565,14.354-1.96,21.554c-0.225,4.094,0.506,8.219,2.561,12.053l0.002,0.001
	c1.807-0.398,3.421-0.757,5.003-1.106l0.001-0.001c0.07-2.791-0.902-5.425-0.808-8.106c-0.062-1.081,0.016-1.946,0.384-2.298
	c0.9-0.212,1.266,0.677,1.719,0.919c0.208-0.168,0.383-0.259,0.463-0.343c0.008-0.008,0.008-0.017,0.014-0.024
	c0.015-0.019,0.03-0.038,0.033-0.058c0.252-1.851,0.653-3.637,1.17-5.375c1.131-3.801,2.873-7.355,5.236-10.711
	c0.434-0.617,0.823-1.33,1.135-2.083c0.518-1.256,0.816-2.623,0.741-3.84c-0.111-1.804,0.414-3.132,0.902-4.688
	c1.239-3.948,2.315-7.952,3.353-11.961c0.448-1.732,0.544-3.557,0.959-5.301c0.004-0.018,0.009-0.036,0.013-0.054
	c1.37-5.766,2.854-14.886,4.266-17.381l0,0c-1.076-0.002-1.511-0.002-2.827-0.002c3-3.086,4.581-6.414,5.715-9.789
	c0.637-1.896,1.133-3.806,1.656-5.696c1.755-6.341,3.167-12.776,4.861-19.136c1.147-4.31,2.442-8.584,3.821-12.826
	c1.822-5.607,2.671-11.556,5.424-16.851c0.394-0.757,0.826-1.5,1.306-2.228c0.587-0.89,0.58-2.19,0.777-3.314
	c0.387-2.224,0.31-4.665,1.013-6.728c0.101-0.294,0.217-0.582,0.353-0.859c0.844-1.725,1.575-3.48,2.229-5.26
	c1.958-5.339,3.202-10.884,4.598-16.377C347.193,326.788,349.906,315.01,352.666,303.245z"/>
<path d="M170.541,315.74c-7.093,12.162-11.494,25.33-15.672,38.619c-1.733,5.51-3.419,11.054-4.716,16.677
	c-1.797,7.793-2.17,15.712-1.056,23.489c-1.113-7.776-0.741-15.695,1.056-23.486c1.297-5.623,2.983-11.167,4.716-16.678
	c4.178-13.288,8.579-26.456,15.672-38.618c4.25-7.288,7.429-15.192,12.721-21.894c1.336-1.692,2.463-3.546,2.453-5.621
	c0.01,2.074-1.117,3.926-2.453,5.617C177.97,300.549,174.791,308.453,170.541,315.74z"/>
<path d="M263.439,173.879c2.126,1.85,3.63,3.159,5.62,4.892C267.045,176.985,264.734,173.882,263.439,173.879z"/>
<polygon points="185.638,287.325 185.64,287.321 185.638,287.323 "/>
<path d="M270.029,187.769c-0.113,15.018-1.965,29.878-4.639,44.63c-4.326,23.88-8.766,47.742-13.222,71.597
	c-5.687,30.445-15.41,59.496-30.339,86.701c-7.711,14.054-17.732,26.277-31.178,35.095c-8.671,5.687-25.064,9.182-36.843-1.192
	c-5.251-4.623-9.917-9.508-12.387-15.941c-1.76-4.583-2.587-9.587-3.345-14.479c-0.435-2.808-0.625-5.613-0.635-8.413
	c0.011,2.801,0.2,5.606,0.635,8.415c0.758,4.892,1.585,9.896,3.345,14.479c2.47,6.433,7.137,11.319,12.387,15.941
	c11.779,10.374,28.172,6.88,36.843,1.192c13.446-8.818,23.467-21.041,31.178-35.095c14.928-27.205,24.652-56.257,30.339-86.701
	c4.456-23.856,8.896-47.717,13.222-71.597c2.674-14.752,4.526-29.612,4.64-44.63c0.022-3.1-0.156-7.52-0.882-8.92
	C269.433,181.569,270.052,184.67,270.029,187.769z"/>
<path d="M260.5,188.246c0.92-4.495,1.838-8.996,2.935-14.367C262.38,173.257,261.421,183.684,260.5,188.246z"/>
<path d="M189.275,281.71c0-0.001,0-0.002,0-0.003c-0.005,0.009-0.011,0.017-0.016,0.024
	C189.264,281.724,189.27,281.718,189.275,281.71z"/>
<path d="M186.994,279.656c0.8,0.721,1.39,1.252,2.281,2.051C189.331,280.497,188.332,278.918,186.994,279.656z"/>
<path d="M141.422,408.658c2.47,6.434,7.136,11.318,12.387,15.941c11.779,10.374,28.172,6.879,36.843,1.192
	c13.446-8.817,23.467-21.041,31.178-35.095c14.929-27.205,24.652-56.256,30.339-86.701c4.456-23.855,8.896-47.717,13.222-71.597
	c2.674-14.752,4.525-29.612,4.639-44.63c0.022-3.099-0.597-6.2-0.881-8.917c0,0,0,0,0-0.001c-0.029-0.025-0.06-0.054-0.089-0.08
	c-1.99-1.732-3.494-3.042-5.62-4.892c-0.001,0-0.003,0-0.004,0c0,0,0,0-0.001,0c-1.097,5.371-2.015,9.872-2.935,14.367
	c-0.005,0.026-0.011,0.054-0.016,0.079c-3.896,19.059-7.799,38.115-11.69,57.175c-3.757,18.404-7.08,36.912-11.358,55.195
	c-5.506,23.533-14.095,46.07-24.09,68.053c-6.011,13.219-12.902,25.911-22.732,36.807c-6.611,7.328-13.783,13.547-24.869,14.275
	c-8.084-3.569-13.279-10.454-15.436-19.09c-0.514-2.058-0.913-4.131-1.211-6.215c-1.114-7.777-0.742-15.696,1.056-23.489
	c1.297-5.623,2.983-11.167,4.716-16.677c4.178-13.289,8.579-26.457,15.672-38.619c4.25-7.287,7.429-15.191,12.721-21.895
	c1.336-1.691,2.463-3.543,2.453-5.617c-0.001-0.297-0.026-0.597-0.077-0.902c0,0,0,0,0-0.001s0-0.001,0-0.002
	c0-0.001,0.001-0.001,0.001-0.002c0.528-2.977,2.404-3.729,3.619-5.59c0.005-0.008,0.011-0.016,0.016-0.024l0,0
	c-0.891-0.799-1.481-1.33-2.281-2.051c-0.938,0.686-1.849,1.388-2.734,2.105c-6.197,5.022-11.145,10.802-15.437,17.03
	c-14.384,20.86-25.412,43.265-29.56,68.567c-1.001,6.105-1.844,12.246-1.821,18.407c0.011,2.8,0.2,5.605,0.635,8.413
	C138.835,399.071,139.662,404.075,141.422,408.658z"/>
<path d="M319.938,231.366c-0.516-2.916-1.983-4.68-5.607-8.061c-0.086,0.082-0.174,0.164-0.259,0.245
	C317.903,227.097,319.407,228.647,319.938,231.366z"/>
<path d="M316.894,253.782c-1.645,3.995-3.202,8.054-5.228,11.856C313.692,261.837,315.249,257.777,316.894,253.782z"/>
<path d="M292.882,214.867c0.817-1.064,1.435-2.281,1.851-2.953C294.125,211.625,293.878,213.569,292.882,214.867z"/>
<path d="M278.925,273.825c1.466,2.036,3.851,4.274,6.123,4.683C282.775,278.098,280.391,275.861,278.925,273.825z"/>
<path d="M299.228,277.555c5.347-2.625,9.632-6.645,12.438-11.916c2.025-3.803,3.583-7.862,5.228-11.856
	c1.971-4.786,3.058-9.745,3.22-14.974c0.104-3.375,0.145-5.632-0.176-7.442c-0.53-2.719-2.034-4.27-5.866-7.816
	c0.085-0.081,0.173-0.163,0.259-0.245c-0.134-0.124-0.254-0.239-0.393-0.367c1.992-1.05,1.688-1.313,1.312-1.438
	c-1.57,0.218-1.069-0.068-1.754,0.027c-4.48-5.68-10.396-8.246-18.764-9.613c-0.416,0.672-1.033,1.889-1.851,2.953
	c-7.337,9.55-13.465,19.762-17.741,31.078c-3.797,10.048-2.365,19.339,3.784,27.88c1.466,2.036,3.851,4.272,6.123,4.683
	C289.712,279.348,294.732,279.764,299.228,277.555z M290.781,266.064c-0.002-0.002-0.003-0.003-0.005-0.005
	c-2.279-1.048-2.594-4.06-2.425-6.362c0.001-0.008,0.002-0.016,0.003-0.024c0.022-0.304,0.053-0.596,0.089-0.869
	c0.059-0.439,0.135-0.878,0.202-1.317c0.156-1.026,0.335-2.05,0.539-3.072c0.274-1.381,0.589-2.753,0.952-4.11
	c0.193-0.719,0.39-1.436,0.607-2.144c0.005-0.015,0.01-0.028,0.015-0.043c0.159-0.517,0.346-1.069,0.552-1.646
	c0.973-2.846,2.152-5.6,3.511-8.308c2.896-6.143,6.133-11.823,6.595-11.229c0.558,1.199,1.044,2.376,1.449,3.537
	c1.752,5.031,1.952,9.759-0.395,14.678c-0.514,1.076-0.991,2.169-1.46,3.268c-0.438,1.029-0.87,2.062-1.309,3.09
	c-0.784,1.837-1.597,3.658-2.55,5.402c-1.72,3.145-5.837,9.085-6.369,9.15C290.782,266.062,290.782,266.063,290.781,266.064z"/>
<path d="M163.402,200.142c-1.969,0.609-5.734,6.118-8.258,10.558C157.379,206.781,160.052,203.184,163.402,200.142z"/>
<path d="M123.652,355.934c-3.346-2.466-3.684-6.105-3.745-9.744c-0.18-10.735,1.571-21.256,4.506-31.51
	c3.565-12.453,8.065-24.644,11.454-37.14c4.086-15.067,7.429-30.338,11.096-45.521c1.646-6.814,3.96-13.387,7.234-19.594
	c0.292-0.553,0.592-1.101,0.9-1.642c-0.323,0.569-0.627,1.123-0.902,1.643c-3.275,6.207-5.588,12.781-7.234,19.594
	c-3.667,15.182-7.01,30.453-11.096,45.521c-3.389,12.496-7.889,24.688-11.454,37.141c-2.935,10.252-4.685,20.774-4.506,31.508
	c0.061,3.64,0.399,7.279,3.745,9.746c1.683,1.314,1.457-1.535,2.258-1.935c0.948-0.474,2.925,0.332,3.031-0.879v-0.001
	c-0.969,0.265-2.083,0.406-3.03,0.879C125.109,354.4,124.499,355.186,123.652,355.934z"/>
<path d="M167.749,251.918c-4.763,1.25-10.641,3.573-15.942,4.969c5.784-1.519,10.999-2.888,16.194-4.253
	C168.03,252.233,168.057,251.837,167.749,251.918z"/>
<path d="M164.899,227.352c-1.531-0.555-2.708-0.981-4.125-1.494c0,0,0,0.001,0,0.001
	C162.19,226.372,163.417,227.833,164.899,227.352c1.434-0.768,5.421-4.808,8-7.354c1.751-1.73,4.767-4.081,4.754-5.429
	c-1.494,1.725-3.002,3.7-4.753,5.428C170.321,222.542,167.569,224.914,164.899,227.352z"/>
<path d="M150.44,264.901c6.893-3.14,16.935-4.825,17.81-11.526c-0.068,0.018-0.115,0.004-0.154-0.02
	C164.283,260.626,156.873,261.925,150.44,264.901z"/>
<path d="M149.514,265.341c0.018-0.01,0.037-0.018,0.055-0.027C149.551,265.323,149.532,265.331,149.514,265.341
	C149.514,265.34,149.514,265.34,149.514,265.341z"/>
<path d="M144.41,285.128c1.899-6.521,3.408-13.157,5.103-19.787c0,0,0,0,0.001,0c0-0.001,0-0.001,0-0.001
	c0.018-0.009,0.037-0.017,0.055-0.026c0.284-0.141,0.576-0.277,0.872-0.412c6.433-2.977,13.843-4.275,17.656-11.546
	c-0.139-0.087-0.119-0.402-0.095-0.721c-5.195,1.365-10.41,2.734-16.194,4.253c-0.014,0.004-0.029,0.008-0.043,0.012
	c1.759-10.872,3.343-21.404,9.009-31.04h0c0,0,0,0,0-0.001c1.417,0.513,2.594,0.939,4.125,1.494c2.67-2.438,5.422-4.81,8.001-7.355
	c1.75-1.729,3.259-3.703,4.753-5.428l0,0c-1.252-7.859-7.748-14.356-14.251-14.427l0,0c-3.35,3.042-6.022,6.639-8.258,10.558
	c-0.016,0.028-0.03,0.055-0.046,0.083c-0.308,0.542-0.608,1.089-0.9,1.642c-3.274,6.207-5.588,12.78-7.234,19.594
	c-3.667,15.183-7.01,30.454-11.096,45.521c-3.389,12.496-7.889,24.687-11.454,37.14c-2.935,10.254-4.686,20.774-4.506,31.51
	c0.061,3.639,0.399,7.278,3.745,9.744c0.847-0.748,1.457-1.533,2.258-1.934c0.947-0.473,2.061-0.614,3.03-0.879
	c-0.12-13.264,2.837-25.676,5.919-36.533C137.851,306.047,141.346,295.648,144.41,285.128z"/>
<path d="M132.227,249.987c-0.081,0.904-0.195,1.799-0.342,2.681C132.032,251.786,132.146,250.892,132.227,249.987z"/>
<path d="M129.759,238.24c0.612,0.557,1.294,1.2,2.115,1.976C131.625,239.703,130.832,238.994,129.759,238.24z"/>
<path d="M131.885,252.668c-0.147,0.882-0.328,1.752-0.542,2.607C131.557,254.42,131.737,253.551,131.885,252.668z"/>
<path d="M236.891,146.406c0.295-0.417,0.593-0.822,0.895-1.216C237.483,145.584,237.186,145.989,236.891,146.406z"/>
<path d="M227.156,175.15c0.06-8.926,4.117-20.675,9.604-28.562C231.273,154.475,227.216,166.224,227.156,175.15z"/>
<path d="M227.575,179.897c0.437-0.262,0.985-0.404,1.202-0.751c0.759-1.211,1.51-2.428,2.251-3.649
	c-0.741,1.221-1.492,2.437-2.251,3.648C228.561,179.493,228.012,179.634,227.575,179.897z"/>
<path d="M242.253,152.501c0.196-0.584,0.41-1.16,0.593-1.75c0.055-0.177,0.11-0.355,0.166-0.533
	c-0.056,0.178-0.111,0.356-0.166,0.532C242.663,151.34,242.449,151.917,242.253,152.501z"/>
<rect x="180.099" y="122.684" width="0.005" height="0.001"/>
<path d="M180.1,122.687c0.008-0.059,0.014-0.102,0.019-0.136C180.114,122.586,180.107,122.633,180.1,122.687
	C180.1,122.687,180.1,122.687,180.1,122.687z"/>
<path d="M179.94,122.963c0.056-0.096,0.112-0.19,0.159-0.271c0-0.001,0-0.003,0.001-0.005c-0.048,0.082-0.104,0.177-0.162,0.274
	L179.94,122.963C179.94,122.963,179.94,122.963,179.94,122.963z"/>
<path d="M180.2,122.518C180.22,122.482,180.222,122.479,180.2,122.518L180.2,122.518z"/>
<path d="M179.94,122.963C179.94,122.963,179.94,122.963,179.94,122.963l0.108,0.099c0.019-0.133,0.036-0.263,0.051-0.37
	C180.052,122.773,179.996,122.867,179.94,122.963z"/>
<path d="M180.2,122.518c-0.02,0.033-0.054,0.091-0.097,0.164c0,0,0,0,0,0C180.154,122.596,180.183,122.547,180.2,122.518z"/>
<path d="M180.119,122.55c0.022-0.163,0.008-0.059-0.019,0.137l0,0C180.107,122.633,180.114,122.586,180.119,122.55z"/>
<path d="M288.646,257.488c-0.067,0.439-0.144,0.878-0.202,1.317c-0.036,0.272-0.066,0.565-0.089,0.869
	c0.021-0.292,0.051-0.581,0.089-0.868C288.502,258.367,288.578,257.927,288.646,257.488z"/>
<path d="M294.821,238.166c1.895-3.776,4.117-7.473,6.595-11.229C300.954,226.343,297.717,232.023,294.821,238.166z"/>
<path d="M290.759,248.119c0.171-0.555,0.365-1.099,0.552-1.646C291.104,247.05,290.918,247.603,290.759,248.119z"/>
<path d="M289.185,254.416c0.274-1.381,0.589-2.753,0.952-4.11C289.773,251.663,289.459,253.035,289.185,254.416z"/>
<g>
	<path d="M119.423,234.162c0.001,0,0.002,0,0.003,0C119.425,234.162,119.424,234.161,119.423,234.162
		c-6.172,5.62-10.396,12.589-12.673,20.584C109.029,246.751,113.251,239.782,119.423,234.162z"/>
	<path d="M113.298,274.839c-4.189-1.217-6.416-4.507-7.091-8.575C106.882,270.333,109.11,273.623,113.298,274.839
		c9.866-3.197,15.798-10.58,18.045-19.563C129.096,264.258,123.164,271.641,113.298,274.839z"/>
	<path d="M106.281,256.397c0.138-0.56,0.312-1.101,0.468-1.65C106.593,255.297,106.419,255.838,106.281,256.397
		c-0.771,3.121-0.607,6.654-0.074,9.867C105.674,263.05,105.511,259.517,106.281,256.397z"/>
	<path d="M119.426,234.162c1.45,0.219,2.599,0.394,3.566,0.574C121.513,234.212,120.204,233.945,119.426,234.162z"/>
	<path d="M131.874,240.216c-0.821-0.776-1.503-1.419-2.115-1.976c-1.837-1.29-4.501-2.703-6.766-3.505
		c-0.968-0.18-2.116-0.355-3.566-0.574c-0.001,0-0.002,0-0.003,0c-6.172,5.62-10.394,12.589-12.673,20.584
		c-0.157,0.55-0.33,1.091-0.468,1.65c-0.771,3.12-0.607,6.653-0.074,9.867c0.675,4.068,2.902,7.358,7.091,8.575
		c9.866-3.198,15.798-10.581,18.045-19.563c0.214-0.855,0.395-1.725,0.542-2.607s0.261-1.777,0.342-2.681
		C132.511,246.821,132.39,243.532,131.874,240.216z M122.518,254.376c-1.861,4.151-4.361,7.819-8.692,10.382
		c0.288-1.738,0.35-3.554,0.906-5.202c1.492-4.426,1.903-8.718,5.768-11.931l0.67-0.75v0.001l0.001-0.001l0,0.003l0.079,0.497
		c-0.314,0.93-0.846,1.574-1.266,2.816C119.416,252,122.833,252.417,122.518,254.376z"/>
	<polygon points="121.11,247.207 121.17,246.878 121.17,246.876 121.033,247.088 	"/>
	<polygon points="121.171,246.875 121.17,246.876 121.17,246.878 	"/>
</g>
</svg>
