<?xml version="1.0" encoding="utf-8"?>
<!-- Generator: Adobe Illustrator 16.0.0, SVG Export Plug-In . SVG Version: 6.00 Build 0)  -->
<!DOCTYPE svg PUBLIC "-//W3C//DTD SVG 1.1//EN" "http://www.w3.org/Graphics/SVG/1.1/DTD/svg11.dtd">
<svg version="1.1" id="Layer_1" xmlns="http://www.w3.org/2000/svg" xmlns:xlink="http://www.w3.org/1999/xlink" x="0px" y="0px"
	 width="391px" height="521px" viewBox="0 0 391 521" enable-background="new 0 0 391 521" xml:space="preserve">
<path d="M168.1,253.4c0.1-0.3,0.3-0.6,0.4-0.9c-0.2,0-0.4,0.1-0.5,0.1C168,253,168,253.3,168.1,253.4z"/>
<path d="M150.4,264.9c-0.3,0.1-0.6,0.3-0.9,0.4C149.9,265.2,150.1,265,150.4,264.9z"/>
<path d="M155.1,210.8C155.1,210.8,155.1,210.7,155.1,210.8C155.1,210.7,155.1,210.8,155.1,210.8z"/>
<path d="M313.5,221.5c-4.5-5.7-10.4-8.2-18.8-9.6C303.1,213.3,309,215.8,313.5,221.5z"/>
<path d="M227.6,179.9c-0.3-1.4-0.4-3-0.4-4.7C227.1,176.9,227.3,178.4,227.6,179.9z"/>
<path d="M135.8,35.1c-0.5,4.3-0.2,8.7-0.8,12.9c-0.4,2.9-1.4,6-3.1,8.3c-5.3,7.3-11.8,13.5-19,18.7c-1.9,0.4-3.4,0.2-4.7-0.3
	c1.3,0.5,2.9,0.7,4.8,0.3c7.2-5.2,13.7-11.4,19-18.7c1.7-2.3,2.7-5.4,3.1-8.3C135.6,43.8,135.3,39.4,135.8,35.1
	c0.8-7-2.9-11.7-7.6-15.9c-3.1-2.8-6.6-4.7-10.3-6.2c3.7,1.5,7.2,3.4,10.3,6.2C132.9,23.4,136.6,28.1,135.8,35.1z"/>
<path d="M31.8,157.7c-1.2,2.7-1.6,4.2-2.7,6.9c-2.7,6.5-0.7,12.3,2.4,18c2.2,4,6.3,4.9,10.2,5.3c2.4,0.3,4.8,0.4,7.1,0.4
	c-2.3,0-4.7-0.2-7.1-0.4c-3.9-0.5-8-1.3-10.2-5.3c-3.2-5.7-5.1-11.5-2.4-18c1.1-2.8,2.4-5.4,3.7-8.2c0.3-0.6,0.6-1.2,0.8-1.6
	c0,0,0,0,0,0c0,0,0,0,0,0C33.4,155.2,32.1,157.1,31.8,157.7z"/>
<path d="M34.8,147C34.8,147,34.8,147,34.8,147C34.8,147,34.8,147,34.8,147c0-1.5,0-3,0-4.5C34.6,143.9,34.5,145.5,34.8,147z"/>
<path d="M126.4,157.7c1.5-5.6,1.3-11.2,0.1-16.8c-2.3-10.4-8.5-18.3-15.9-25.4c-7.4-7-15.9-12.6-24.5-18.1c-3.8-2.4-7.5-5-11-7.8
	c-5-4-6.2-9.3-4.2-15.2c0.8-2.3,1.7-4.7,2.9-6.8c6.7-11.3,15.2-21,26.1-28.5c3.5-2.4,7.6-4,11.6-5.6c1.6-0.6,3.2-0.8,4.8-0.3
	c-1.6-0.5-3.3-0.3-4.9,0.3c-4,1.6-8.1,3.2-11.6,5.6C89,46.6,80.5,56.3,73.8,67.6c-1.3,2.1-2.1,4.5-2.9,6.8c-2,6-0.9,11.2,4.2,15.2
	c3.5,2.8,7.2,5.3,11,7.8c8.6,5.5,17,11.1,24.5,18.1c7.5,7.1,13.7,15,15.9,25.4C127.6,146.5,127.9,152.1,126.4,157.7
	c-7.2,26.8-25,42.4-51.6,48.3c-13,2.9-25.4,1.2-36.9-4.3c11.6,5.5,23.9,7.1,36.9,4.3C101.3,200.1,119.1,184.4,126.4,157.7z"/>
<path d="M31.9,152.2C31.9,152.2,31.9,152.2,31.9,152.2C31.9,152.2,31.9,152.2,31.9,152.2C31.9,152.2,31.9,152.2,31.9,152.2
	C31.9,152.2,31.9,152.2,31.9,152.2z"/>
<path d="M168.8,298.8c4.3-6.2,9.2-12,15.4-17C178.1,286.8,173.1,292.6,168.8,298.8c-14.4,20.9-25.4,43.3-29.6,68.6
	c-1,6.1-1.8,12.2-1.8,18.4c0-6.2,0.8-12.3,1.8-18.4C143.4,342.1,154.4,319.7,168.8,298.8z"/>
<path d="M165.7,419.8c11.1-0.7,18.3-6.9,24.9-14.3c9.8-10.9,16.7-23.6,22.7-36.8c10-22,18.6-44.5,24.1-68.1
	c4.3-18.3,7.6-36.8,11.4-55.2c3.9-19.1,7.8-38.1,11.7-57.2c0,0,0-0.1,0-0.1c0,0,0,0.1,0,0.1c-3.9,19.1-7.8,38.1-11.7,57.2
	c-3.8,18.4-7.1,36.9-11.4,55.2c-5.5,23.5-14.1,46.1-24.1,68.1c-6,13.2-12.9,25.9-22.7,36.8C184,412.9,176.8,419.1,165.7,419.8
	c-8.1-3.6-13.3-10.5-15.4-19.1c-0.5-2.1-0.9-4.1-1.2-6.2c0.3,2.1,0.7,4.2,1.2,6.2C152.5,409.4,157.7,416.3,165.7,419.8z"/>
<path d="M185.7,288.2c0-0.3,0-0.6-0.1-0.9c0,0,0,0,0,0C185.7,287.6,185.7,287.9,185.7,288.2z"/>
<path d="M315.2,221.5c0.4,0.1,0.7,0.4-1.3,1.4c0.1,0.1,0.3,0.2,0.4,0.4c0.7-0.6,1.3-1.3,2.3-2.2c-1.6,0.2-2.5,0.3-3.2,0.4
	C314.2,221.4,313.7,221.7,315.2,221.5z"/>
<path d="M320.1,238.8c0.1-3.5,0.2-5.7-0.2-7.4C320.3,233.2,320.2,235.4,320.1,238.8z"/>
<path d="M149.5,265.3L149.5,265.3c-1.7,6.6-3.2,13.3-5.1,19.8c-3.1,10.5-6.6,20.9-9.6,31.5c-3.1,10.9-6,23.3-5.9,36.5c0,0,0,0,0,0
	c-0.1-13.3,2.8-25.7,5.9-36.5c3-10.5,6.5-20.9,9.6-31.5C146.3,278.6,147.8,272,149.5,265.3z"/>
<rect x="263.4" y="173.9" width="0" height="0"/>
<path d="M177.7,214.6L177.7,214.6C177.7,214.6,177.7,214.6,177.7,214.6c-1.3-7.9-7.7-14.4-14.2-14.4c0,0,0,0,0,0l0,0
	C169.9,200.2,176.4,206.7,177.7,214.6z"/>
<path d="M151.8,256.9C151.8,256.9,151.8,256.9,151.8,256.9C151.8,256.9,151.8,256.9,151.8,256.9c1.8-10.9,3.3-21.4,9-31l0,0
	C155.1,235.5,153.5,246,151.8,256.9z"/>
<path d="M189.3,281.7c-1.2,1.9-3.1,2.6-3.6,5.6C186.9,285.4,188,283.6,189.3,281.7z"/>
<path d="M189.3,281.7L189.3,281.7L189.3,281.7z"/>
<path d="M123,234.7c2.3,0.8,4.9,2.2,6.8,3.5C127.2,236,126.1,235.3,123,234.7z"/>
<polygon points="179.9,123.1 179.9,123.1 179.9,123.1 "/>
<path d="M180.1,122.7c0-0.3,0-0.3,0-0.1C180.1,122.6,180.1,122.6,180.1,122.7C180.1,122.7,180.1,122.7,180.1,122.7z"/>
<path d="M176.9,183.9c-4.4-14.5-3.4-28.9-0.5-43.4c0.9-4.6,2.1-9.1,3.1-13.6c0.3-1.2,0.3-2.5,0.4-3.7c0,0,0,0,0,0
	c-0.1,1.2-0.1,2.5-0.4,3.7c-1,4.5-2.2,9-3.1,13.6C173.5,155,172.5,169.5,176.9,183.9c2.3,7.6,8.6,14.3,16.3,17.4
	C185.5,198.2,179.2,191.5,176.9,183.9z"/>
<path d="M242.6,140.2c2.4,3.3,1.4,6.8,0.4,10C244,147,245.1,143.5,242.6,140.2c-1.7,1.2-3.3,2.9-4.8,5
	C239.3,143.2,241,141.5,242.6,140.2z"/>
<polygon points="180.1,122.7 180.1,122.7 180.1,122.7 180.1,122.7 180.1,122.7 "/>
<path d="M280.9,185.3c-2.9-4.7-2.6-10.2-2.2-15.5c0.7-11.4,3.9-22.2,6.9-33.1c0.4-1.6,0.8-3.1,1.4-5.3l0,0c-0.6,2.2-1,3.7-1.4,5.3
	c-3,10.9-6.1,21.8-6.9,33.1C278.3,175.1,278,180.6,280.9,185.3c3.1,5,8.2,7.7,13.8,10.8c0,0,0,0,0,0
	C289.1,193,284,190.3,280.9,185.3z"/>
<path d="M345.4,101.3L345.4,101.3L345.4,101.3z"/>
<polygon points="324.6,45.2 324.6,45.2 324.6,45.2 "/>
<path d="M179.3,123.6c0.2-0.1,0.4-0.3,0.6-0.4l0,0C179.7,123.3,179.5,123.4,179.3,123.6z"/>
<path d="M207.5,198.7c0-0.4,0-0.7,0-1c-0.2,0.6-0.4,1-0.6,1.3C207.1,198.9,207.3,198.8,207.5,198.7z"/>
<path d="M140.3,182.5c0.2,1.1,0.4,2.1,0.6,3.2c0,0,0,0,0,0v0C141,184.3,140.7,183.3,140.3,182.5z"/>
<path d="M212.5,189.8L212.5,189.8c3.9,2.3,7.4,4.5,11,6.4c1.8,0.9,3.5,1.6,5.1,2c-1.7-0.4-3.4-1.1-5.1-2
	C219.9,194.3,216.4,192.1,212.5,189.8z"/>
<path d="M145.1,153.6c0.8-17.3,1.7-34.6,3.2-51.8c2.1-23.9,5.7-47.5,11.1-70.9c1.3-5.5,2-11.1,2.9-16.7c0-0.1,0-0.1,0-0.2
	c0,0.1,0,0.1,0,0.2c-0.9,5.6-1.6,11.2-2.9,16.7c-5.4,23.4-9,47-11.1,70.9C146.8,119,146,136.3,145.1,153.6
	c-0.4,9.2-1.6,18.2-5.3,26.3c0,0,0,0,0,0c0,0,0,0,0,0C143.5,173.3,144.7,162.9,145.1,153.6z"/>
<path d="M341.6,113.4c0.4-0.2,0.8-0.6,1.3-0.9c-0.1-0.7-0.3-1.4-0.5-2.2c0.1,0.7,0.1,0.8,0.2,1.5C342.2,112.2,342,113.2,341.6,113.4
	z"/>
<path d="M242.3,152.5c-2.7,8.1-6.8,15.7-11.2,23C235.5,168.2,239.5,160.6,242.3,152.5z"/>
<path d="M168.4,118.6c3.5-5.6,7.1-11.3,10.7-16.9c0.9-1.4,2.1-2.5,3.3-4c0,0,0,0,0,0c0,0,0,0,0,0c-1.3,1.5-2.4,2.7-3.3,4
	C175.4,107.3,171.9,112.9,168.4,118.6c-1,1.6-1.9,3.4-4.2,4.3c0,0,0,0,0,0C166.5,122,167.3,120.2,168.4,118.6z"/>
<path d="M236.8,146.6c0-0.1,0.1-0.1,0.1-0.2C236.8,146.5,236.8,146.5,236.8,146.6z"/>
<path d="M164,9.9c-0.5-0.2-1-0.4-1.5-0.6c0,0,0,0,0,0c0,0,0,0,0,0C163.1,9.5,163.6,9.7,164,9.9z"/>
<path d="M312.4,109.4c-0.1,0-0.2,0.1-0.4,0.1v0C312.1,109.5,312.2,109.5,312.4,109.4z"/>
<path d="M197.2,103.8c-0.5-3.3-2.7-5.1-5.9-5.6c0,0,0,0,0,0c0,0,0,0,0,0C194.4,98.9,196.7,100.5,197.2,103.8z"/>
<path d="M315.4,43C315.4,43,315.4,43,315.4,43C315.4,43,315.4,43,315.4,43C315.4,43,315.4,43,315.4,43C315.4,43,315.4,43,315.4,43z"
	/>
<path d="M208.9,184.7c-3-10.6-3.4-21,1.5-30.9c6.2-12.5,14.6-23.4,25-32.7c0.5-0.4,1.1-0.7,1.6-1c6,0.2,11.5,1.7,15.7,4.4
	c-4.2-2.7-9.7-4.2-15.7-4.4c-0.5,0.3-1.1,0.6-1.6,1c-10.4,9.3-18.8,20.2-25,32.7C205.5,163.7,205.9,174.1,208.9,184.7
	c-3.4,2.9-7.1,5.6-12.3,6.7l0,0C198.7,192.8,205.5,187.6,208.9,184.7z"/>
<path d="M275.8,118.2c8.3-6.9,14.3-15.7,20.5-24.4c3.1-4.4,4.8-9.4,6.5-14.4c3.3-10.1,6.9-20.1,10.4-30.1c0,0,0-0.1,0-0.1
	c0,0,0,0.1,0,0.1c-3.5,10-7.1,20-10.4,30.1c-1.7,5.1-3.4,10-6.5,14.4C290.2,102.5,284.1,111.3,275.8,118.2
	c-5.5,4.6-11.6,8.2-18.3,10.6l0,0C264.3,126.5,270.3,122.8,275.8,118.2z"/>
<path d="M269.1,178.9C269.1,178.9,269.1,178.9,269.1,178.9C269.1,178.8,269.1,178.8,269.1,178.9
	C269.1,178.8,269.1,178.8,269.1,178.9L269.1,178.9z"/>
<polygon points="295.7,508.9 295.7,508.9 295.7,508.9 "/>
<path d="M297.5,499L297.5,499C297.5,499,297.5,499,297.5,499C297.5,499,297.5,499,297.5,499z"/>
<path d="M315.3,437.6c-1.4,2.5-2.9,11.6-4.3,17.4C312.4,449.2,313.8,443.5,315.3,437.6z"/>
<path d="M340.2,240.5c-0.1,0.5-0.1,0.9-0.2,1.4C340.1,241.4,340.1,241,340.2,240.5z"/>
<path d="M318.2,427.8c-1.1,3.4-2.7,6.7-5.7,9.8C315.5,434.5,317,431.1,318.2,427.8z"/>
<path d="M361.8,213.8c0.1-0.1,0.2-0.2,0.2-0.4C361.9,213.5,361.9,213.6,361.8,213.8z"/>
<polygon points="290.8,266.1 290.8,266.1 290.8,266.1 290.8,266.1 "/>
<path d="M335.2,371C335.2,371,335.2,371,335.2,371c-0.5,0.7-0.9,1.5-1.3,2.2C334.3,372.5,334.8,371.8,335.2,371z"/>
<path d="M342.5,240.1c-0.5,0.6-1.3,1.1-2.5,2.1C339.9,242.7,341,242.1,342.5,240.1z"/>
<path d="M298.7,493.6c1.1-3.8,2.9-7.4,5.2-10.7c0.4-0.6,0.8-1.3,1.1-2.1c-0.3,0.8-0.7,1.5-1.1,2.1
	C301.6,486.2,299.8,489.8,298.7,493.6z"/>
<path d="M295.3,498.5c-0.4,0.4-0.4,1.2-0.4,2.3C294.9,500,295,499.2,295.3,498.5c0.7,0.4,1.3,0.7,1.7,0.9c0.2-0.2,0.4-0.3,0.5-0.3
	c-0.1,0.1-0.3,0.2-0.5,0.3C296.6,499.1,296.2,498.3,295.3,498.5z"/>
<path d="M288.1,497.9c0.4-7.2,0.8-14.5,2-21.6C288.9,483.5,288.5,490.7,288.1,497.9c-0.2,4.1,0.5,8.2,2.6,12.1c0,0,0,0,0,0l0,0
	C288.7,506.1,287.9,502,288.1,497.9z"/>
<path d="M337,361c0.1-0.3,0.2-0.6,0.4-0.9c0.8-1.7,1.6-3.5,2.2-5.3c-0.7,1.8-1.4,3.5-2.2,5.3C337.3,360.4,337.1,360.7,337,361z"/>
<path d="M318.9,364.8c5.9-21.1,11.3-42.4,17.1-63.5c3.4-12.7,7.2-25.2,10.7-37.9c0.7-2.4,1.4-4.7,2.4-8c-1.7,1-2.7,1.4-3.5,2
	c-4.1,3.3-7.4,3.4-11.6,0.3c-5.1-3.9-7.2-9.4-7.8-15.5c-0.6-5.7,0.7-11.2,2.5-16.6c0.4-1.1,0.8-2.3,1.2-3.4
	c-0.4,1.1-0.9,2.2-1.2,3.4c-1.9,5.4-3.1,10.9-2.5,16.6c0.6,6.1,2.7,11.7,7.8,15.5c4.2,3.1,7.5,3,11.6-0.3c0.8-0.6,1.8-1,3.5-2
	c-1,3.3-1.7,5.6-2.4,8c-3.6,12.6-7.3,25.2-10.7,37.9C330.2,322.4,324.8,343.7,318.9,364.8c-3,10.7-6.7,21.2-10,31.9
	c-4.1,13.6-7.8,27.4-11,41.2c3.2-13.9,6.9-27.6,11-41.3C312.1,386,315.9,375.5,318.9,364.8z"/>
<path d="M380.7,208.5c-0.6,1.5-0.9,3-1.5,5.6C379.7,212.2,380.2,210.3,380.7,208.5z"/>
<path d="M290.8,248.1C290.8,248.1,290.7,248.1,290.8,248.1c-0.2,0.8-0.4,1.5-0.6,2.2C290.3,249.6,290.5,248.9,290.8,248.1
	C290.7,248.1,290.8,248.1,290.8,248.1z"/>
<path d="M368.8,204.6c2.1,0.1,4.6,0.6,6.7,1.3C373.3,205.1,371.1,204.6,368.8,204.6z"/>
<path d="M355.8,199.8c-1.1-1.5-2.4-2.4-3.8-2.9C353.5,197.5,354.9,198.5,355.8,199.8z"/>
<path d="M301,248.4c-0.4,1-0.9,2.1-1.3,3.1C300.1,250.5,300.6,249.4,301,248.4z"/>
<path d="M288.4,259.7C288.4,259.7,288.4,259.7,288.4,259.7C288.4,259.7,288.4,259.7,288.4,259.7z"/>
<path d="M288.6,257.5c0.2-1,0.3-2.1,0.5-3.1C289,255.4,288.8,256.5,288.6,257.5z"/>
<path d="M291.3,246.5c0.9-2.5,2.2-5.4,3.5-8.3C293.5,240.9,292.3,243.6,291.3,246.5z"/>
<path d="M342.4,110.1c0,0.1,0,0.1,0,0.2C342.4,110.2,342.4,110.2,342.4,110.1c1.1-1.2,2.6-1.3,3-3.4c0-2,1.4-4.2,0-5.4c0,0,0,0,0,0
	c0,1.8,0,3.4,0,5.4C344.6,107.7,343.4,108.9,342.4,110.1z"/>
<path d="M323.8,58.7c-3.9,11.7-5.9,23.8-8.9,35.7c-1.1,4.3-2,8.8-2.9,13.1c-0.1,0.6,0,1.3,0,2c0,0,0,0,0,0c0-0.7-0.1-1.4,0-2
	c0.9-4.4,1.8-8.8,2.9-13.1C317.9,82.5,319.9,70.4,323.8,58.7c1.4-4.2,1.7-8.7,0.8-13.5c0,0,0,0,0,0C325.5,50,325.2,54.6,323.8,58.7z
	"/>
<path d="M197.7,111.4c0.1,1.8,0,3.6-0.3,5.2c-2.1,12.6-4.3,25.2-6.3,37.8c-1,6.8-1.1,13.6-0.1,20.4c0.6,3.8,1.3,7.5,2.4,11.2
	c0.6,1.9,2.1,3.6,3.2,5.4l0,0c-1.1-1.8-2.6-3.5-3.2-5.4c-1.1-3.6-1.8-7.4-2.4-11.2c-1-6.8-0.9-13.6,0.1-20.4
	c1.9-12.6,4.2-25.2,6.3-37.8C197.7,114.9,197.7,113.2,197.7,111.4c-0.1-2.3-0.2-4.6-0.4-6.9c0-0.2-0.1-0.4-0.1-0.6
	c0,0.2,0.1,0.4,0.1,0.6C197.5,106.7,197.6,109.1,197.7,111.4z"/>
<path d="M140.3,182.5c-0.2-0.8-0.3-1.7-0.5-2.6C139.2,180.7,139.8,181.3,140.3,182.5z"/>
<path d="M169.4,18c0.2,7.6,0.5,15.3,0.2,22.9c-0.3,7.6-1.1,15.3-1.7,22.9c-0.8,9.6-1.9,19.2-2.5,28.8c-0.6,10-0.9,19.9-1.3,30.3
	c0,0,0,0,0,0c0.4-10.3,0.7-20.3,1.3-30.3c0.6-9.6,1.7-19.2,2.5-28.8c0.6-7.6,1.5-15.2,1.7-22.9C169.9,33.3,169.6,25.6,169.4,18
	c-0.1-3.9-2.1-6.5-5.4-8.1C167.3,11.5,169.3,14.1,169.4,18z"/>
<path d="M338.6,115.2c-8.3,7.8-19.1,9.5-29.4,12.2c-0.2,0-0.3,0.2-1.1,0.7c-4.4,19-9.2,38.5-9.2,59.2c-2.8,1.7-4,4.7-4.2,8.8
	c0,0,0,0,0,0c2,0.6,1.4-7.1,4.2-8.8c0-20.7,4.8-40.2,9.2-59.2c0.8-0.5,1-0.6,1.1-0.7C319.5,124.6,330.3,123,338.6,115.2
	c0.8-0.8,2-1.1,3-1.7c0,0,0,0,0,0c0,0,0,0,0,0C340.6,114,339.4,114.4,338.6,115.2z"/>
<path d="M257.6,128.8C257.6,128.8,257.6,128.8,257.6,128.8c-1.3-1.7-3-3.1-4.9-4.3C254.6,125.7,256.2,127.1,257.6,128.8z"/>
<path d="M313.2,49.2c0.7-2,1.4-4,2.1-6.1C313.9,46.1,313.9,47.2,313.2,49.2z"/>
<path d="M312.4,109.4c11.1-2.7,21.9-5.4,33.1-8.1C343.8,100.2,323.7,106.6,312.4,109.4z"/>
<path d="M315.4,43c3.1,0.8,6.1,1.5,9.2,2.2C321.5,44.5,317,41,315.4,43z"/>
<path d="M162.3,14c0.2-1.5,0.2-3.1,0.3-4.7C161.5,9,162.4,12.3,162.3,14z"/>
<path d="M261,143.3c-1.4,3-2.3,6.3-1.9,9.6c0.3,2.4,0.1,4.5-0.8,6.7c-4.1,9.3-8.1,18.6-12.3,27.8c-0.9,1.9-2.3,3.7-3.8,5.3
	c-4.8,5.4-9,6.7-13.5,5.7c4.4,1,8.7-0.3,13.5-5.7c1.4-1.6,2.9-3.3,3.8-5.3c4.2-9.2,8.2-18.5,12.3-27.8c0.9-2.1,1.1-4.2,0.8-6.7
	C258.7,149.6,259.6,146.3,261,143.3c9.9-0.9,17.7-6.4,25.9-12v0C278.7,136.9,270.9,142.4,261,143.3z"/>
<path d="M207.5,197.7c0.8-2,2.1-5.3,5-7.9h0C210.1,191.9,207.8,194.1,207.5,197.7z"/>
<path d="M193.2,201.3c1.8,0.7,3.6,1.3,5.5,1.6c2.9-1.4,5-2.2,7.9-3.6c0.1-0.1,0.1-0.2,0.2-0.3c-2.7,1.3-5.5,2.6-8.1,3.9
	C196.9,202.6,195,202.1,193.2,201.3z"/>
<path d="M179,123.9c-5.3,10.9-10.7,21.8-15.7,32.8c-1.3,2.9-1.6,6.4-2.2,9.7c-0.7,4.6-0.8,9.3-1.9,13.8c-1.4,5.3-3.6,10.3-5.5,15.7
	c-5.6-2.3-9.3-6.3-12.7-10.2c-0.1,1.9,11,10.9,12.7,10.2c1.4-0.8,4.2-10.5,5.5-15.7c1.2-4.5,1.2-9.2,1.9-13.8
	c0.5-3.3,0.8-6.7,2.2-9.7C168.3,145.7,173.7,134.8,179,123.9c0.1-0.1,0.2-0.3,0.3-0.4C179.2,123.7,179.1,123.8,179,123.9z"/>
<path d="M182.3,97.7c3,0.1,6,0,8.9,0.5C189.2,97.7,183.7,96.5,182.3,97.7z"/>
<path d="M179.9,123.1c0,0,0.1-0.1,0.1-0.1l-0.1-0.1C179.9,123,179.9,123.1,179.9,123.1z"/>
<path d="M180.1,122.7C180.1,122.7,180.1,122.7,180.1,122.7C180.3,122.4,180.2,122.5,180.1,122.7z"/>
<path d="M179.9,123.1c0,0,0.1-0.1,0.1-0.1C180,123.1,180,123.1,179.9,123.1L179.9,123.1z"/>
<path d="M141,185.8L141,185.8c3.4,3.9,7.1,7.8,12.7,10.2c2-5.4,4.2-10.5,5.5-15.7c1.2-4.5,1.2-9.2,1.9-13.8c0.5-3.3,0.8-6.7,2.2-9.7
	c5-11,10.4-21.9,15.7-32.8c0.1-0.1,0.2-0.3,0.3-0.4c0.2-0.1,0.4-0.3,0.6-0.4c0-0.1,0-0.1,0-0.2c0.1-0.1,0.1-0.2,0.2-0.3
	c0-0.2,0-0.3,0-0.1c0-0.1,0-0.1,0,0.1c0-0.1,0.1-0.1,0.1-0.2c0,0,0,0,0,0c0,0,0,0.1-0.1,0.2c0,0,0,0,0,0c0.1-0.2,0.2-0.3,0,0
	c0,0,0,0,0,0c0,0,0,0,0,0c0,0.1,0,0.2-0.1,0.4c0,0-0.1,0.1-0.1,0.1c-0.1,1.2-0.1,2.5-0.4,3.7c-1,4.5-2.2,9-3.1,13.6
	c-2.9,14.5-3.9,29,0.5,43.4c2.3,7.6,8.6,14.3,16.3,17.4c1.8,0.7,3.6,1.3,5.5,1.6c2.7-1.3,5.4-2.6,8.1-3.9c0.2-0.3,0.4-0.8,0.6-1.3
	c0.3-3.6,2.6-5.8,5-7.9l0,0c0,0,0,0,0,0c3.9,2.3,7.4,4.5,11,6.4c1.8,0.9,3.5,1.6,5.1,2c4.4,1,8.7-0.3,13.5-5.7
	c1.4-1.6,2.9-3.3,3.8-5.3c4.2-9.2,8.2-18.5,12.3-27.8c0.9-2.1,1.1-4.2,0.8-6.7c-0.4-3.2,0.5-6.5,1.9-9.6c9.9-0.9,17.7-6.4,25.9-12v0
	c0,0,0,0,0,0c-0.6,2.2-1,3.7-1.4,5.3c-3,10.9-6.1,21.8-6.9,33.1c-0.3,5.3-0.7,10.8,2.2,15.5c3.1,5,8.2,7.7,13.8,10.8
	c0.2-4.1,1.4-7.1,4.2-8.8c0-20.7,4.8-40.2,9.2-59.2c0.8-0.5,1-0.6,1.1-0.7c10.3-2.8,21.1-4.4,29.4-12.2c0.8-0.8,2-1.1,3-1.7
	c0,0,0,0,0,0c0.4-0.3,0.6-1.3,1-1.6c-0.1-0.7-0.1-0.9-0.2-1.5c0-0.1,0-0.1,0-0.2c1.1-1.2,2.2-2.4,3-3.4c0-2,0-3.6,0-5.4l0,0
	c-11.2,2.7-22,5.4-33.1,8.1c-0.1,0-0.2,0.1-0.4,0.1v0c0,0,0,0,0,0c0-0.7-0.1-1.4,0-2c0.9-4.4,1.8-8.8,2.9-13.1c3-11.9,5-24,8.9-35.7
	c1.4-4.2,1.7-8.7,0.8-13.5c0,0,0,0,0,0c-3.1-0.8-6.1-1.5-9.2-2.2l0,0c0,0,0,0,0,0c-0.8,2.2-1.4,4.1-2.1,6.1c0,0,0,0.1,0,0.1
	c-3.5,10-7.1,20-10.4,30.1c-1.7,5.1-3.4,10-6.5,14.4c-6.1,8.7-12.2,17.5-20.5,24.4c-5.5,4.6-11.6,8.2-18.3,10.6l0,0l0,0
	c-1.3-1.7-3-3.1-4.9-4.3c-4.2-2.7-9.7-4.2-15.7-4.4c-0.5,0.3-1.1,0.6-1.6,1c-10.4,9.3-18.8,20.2-25,32.7c-4.9,9.8-4.4,20.2-1.5,30.9
	c-3.4,2.9-10.2,8.1-12.3,6.7l0,0l0,0c-1.1-1.8-2.6-3.5-3.2-5.4c-1.1-3.6-1.8-7.4-2.4-11.2c-1-6.8-0.9-13.6,0.1-20.4
	c2-12.6,4.2-25.2,6.3-37.8c0.3-1.7,0.4-3.5,0.3-5.2c-0.1-2.3-0.2-4.6-0.4-7c0-0.2-0.1-0.4-0.1-0.6c-0.5-3.3-2.7-4.9-5.9-5.6
	c0,0,0,0,0,0c-2.9-0.4-5.9-0.3-8.9-0.5c0,0,0,0,0,0c-1.3,1.5-2.4,2.7-3.3,4c-3.6,5.6-7.1,11.2-10.7,16.9c-1,1.6-1.9,3.4-4.2,4.3
	c0,0,0,0,0,0c0,0,0,0,0,0c0.4-10.3,0.7-20.3,1.3-30.3c0.6-9.6,1.7-19.2,2.5-28.8c0.6-7.6,1.5-15.2,1.7-22.9c0.3-7.6,0-15.3-0.2-22.9
	c-0.1-3.9-2.1-6.5-5.4-8.1c-0.5-0.2-1-0.4-1.5-0.6c0,0,0,0,0,0c-0.1,1.6,0,3.2-0.3,4.7c0,0.1,0,0.1,0,0.2
	c-0.9,5.6-1.6,11.2-2.9,16.7c-5.4,23.4-9,47-11.1,70.9c-1.5,17.2-2.3,34.5-3.2,51.8c-0.4,9.2-1.6,19.7-5.3,26.3c0,0,0,0,0,0
	c0.2,0.9,0.4,1.8,0.5,2.6C140.7,183.3,141,184.3,141,185.8z M236.8,146.6c0-0.1,0.1-0.1,0.1-0.2c0.3-0.4,0.6-0.8,0.9-1.2
	c1.5-2,3.2-3.7,4.8-5c2.4,3.3,1.4,6.8,0.4,10c-0.1,0.2-0.1,0.4-0.2,0.5c-0.2,0.6-0.4,1.2-0.6,1.8c-2.7,8.1-6.8,15.7-11.2,23
	c-0.7,1.2-1.5,2.4-2.3,3.6c-0.2,0.3-0.8,0.5-1.2,0.8c-0.3-1.4-0.4-3-0.4-4.7C227.2,166.2,231.3,154.5,236.8,146.6z"/>
<path d="M179.9,123L179.9,123c0,0.1,0,0.1,0,0.2c0,0,0,0,0,0C179.9,123.1,179.9,123,179.9,123z"/>
<path d="M180,123.1c0-0.1,0-0.3,0.1-0.4l0,0C180.1,122.8,180.1,122.9,180,123.1z"/>
<polygon points="180.1,122.7 180.1,122.7 180.1,122.7 "/>
<path d="M31.9,152.2c0.6,0.9,1.1,1.6,1.7,2.5C33,153.9,33.5,152.3,31.9,152.2z"/>
<path d="M92.3,171.1c2.5-2.1,5.1-4.3,7.4-6.7c11.4-12.2,11.1-24.2,0.6-37.6c-5.3-6.7-12.2-11.7-19.5-16.2c-3.1-1.9-6.3-3.8-9.4-5.7
	c-6.5-4-11.6-9.4-15.9-15.6c-3.9-5.6-4.9-11.7-4.2-18.5c1.3-12.5,7.2-22.7,15.4-31.8c10.4-11.5,23-20.1,36.3-27.8
	c2.6-1.5,5.1-1.3,8-0.5c2.4,0.7,4.7,1.4,7,2.3c-2.2-0.9-4.6-1.6-7-2.3c-3-0.8-5.4-1.1-8,0.5C89.6,19,76.9,27.6,66.6,39.1
	c-8.2,9.1-14.1,19.3-15.4,31.8c-0.7,6.8,0.3,12.9,4.2,18.5c4.3,6.2,9.5,11.6,15.9,15.6c3.1,1.9,6.3,3.8,9.4,5.7
	c7.3,4.4,14.2,9.5,19.5,16.2c10.6,13.4,10.8,25.4-0.6,37.6C97.5,166.9,94.8,169,92.3,171.1c-12.8,10.8-27,17.3-43.4,17.2
	C65.3,188.4,79.5,181.9,92.3,171.1z"/>
<path d="M34.8,138.2c0,1.5,0,2.9,0,4.2C35.1,140.1,35.7,138.3,34.8,138.2z"/>
<path d="M34.8,147c-0.9,1.7-1.9,3.4-2.9,5.2C32.9,150.4,34.3,149.5,34.8,147z"/>
<path d="M103.2,69.3c-0.7-2.8,0.5-5.1,2.2-7.3c1.3-1.6,2.5-3.2,3.9-4.5c5-4.8,6.9-11.2,9.1-17.4c0.6-1.6,0.5-3.5,0.7-5.3
	c-0.9-0.8-1.9-1.3-2.9-1.6c1,0.3,1.9,0.8,2.9,1.6c-0.2,1.8-0.1,3.7-0.7,5.3c-2.2,6.2-4,12.6-9.1,17.4c-1.4,1.4-2.7,3-3.9,4.5
	C103.7,64.2,102.6,66.5,103.2,69.3c1.2,2.5,2.7,4.5,4.9,5.3C106,73.7,104.5,71.8,103.2,69.3z"/>
<path d="M21.2,191.5c-3.4-2.3-5.6-5.7-7.2-9.3c-1.4-3-1.8-6.2-0.6-9.7c4-12.2,10.4-22.9,19.6-32.4c-9.1,9.6-15.5,20.2-19.6,32.4
	c-1.1,3.5-0.7,6.6,0.6,9.7C15.7,185.8,17.8,189.2,21.2,191.5c2.9,1.9,5.8,3.9,8.7,5.8c2.6,1.7,5.2,3.1,7.9,4.4
	c-2.7-1.3-5.3-2.7-7.9-4.4C27,195.5,24.1,193.5,21.2,191.5z"/>
<path d="M74.8,206c26.6-5.9,44.4-21.6,51.6-48.3c1.5-5.6,1.3-11.2,0.1-16.8c-2.3-10.4-8.5-18.3-15.9-25.4
	c-7.4-7-15.9-12.6-24.5-18.1c-3.8-2.4-7.5-5-11-7.8c-5-4-6.2-9.3-4.2-15.2c0.8-2.3,1.7-4.7,2.9-6.8c6.7-11.3,15.2-21,26.1-28.5
	c3.5-2.4,7.6-4,11.6-5.6c1.6-0.6,3.2-0.8,4.9-0.3c1,0.3,1.9,0.8,2.9,1.6c-0.2,1.8-0.1,3.7-0.7,5.3c-2.2,6.2-4,12.6-9.1,17.4
	c-1.4,1.4-2.7,3-3.9,4.5c-1.7,2.1-2.9,4.5-2.2,7.3c1.2,2.5,2.7,4.4,4.9,5.3c1.3,0.5,2.9,0.7,4.7,0.3c7.2-5.2,13.7-11.4,19-18.7
	c1.7-2.3,2.7-5.4,3.1-8.3c0.7-4.2,0.3-8.6,0.8-12.9c0.8-7-2.9-11.7-7.6-15.9c-3.1-2.8-6.6-4.7-10.3-6.2c-2.2-0.9-4.6-1.6-7-2.3
	c-3-0.8-5.4-1.1-8,0.5C89.6,19,76.9,27.6,66.6,39.1c-8.2,9.1-14.1,19.3-15.4,31.8c-0.7,6.8,0.3,12.9,4.2,18.5
	c4.3,6.2,9.5,11.6,15.9,15.6c3.1,1.9,6.3,3.8,9.4,5.7c7.3,4.4,14.2,9.5,19.5,16.2c10.6,13.4,10.8,25.4-0.6,37.6
	c-2.3,2.4-4.9,4.5-7.4,6.7c-12.8,10.8-27,17.3-43.4,17.2c-2.3,0-4.7-0.2-7.1-0.4c-3.9-0.5-8-1.3-10.2-5.3c-3.2-5.7-5.1-11.5-2.4-18
	c1.1-2.8,1.5-4.2,2.7-6.9c0.3-0.6,1.5-2.4,1.8-2.9c0,0,0,0,0,0c-0.6-0.9-1.1-1.7-1.7-2.5c0,0,0,0,0,0c0,0,0,0,0,0
	c1-1.9,2-3.6,2.9-5.2c0,0,0,0,0,0c-0.3-1.5-0.2-3.1,0-4.5c0-1.3,0-2.7,0-4.2c-0.6,0.6-1.3,1.3-1.9,1.9c-9.1,9.6-15.5,20.2-19.6,32.4
	c-1.1,3.5-0.7,6.6,0.6,9.7c1.6,3.6,3.8,7,7.2,9.3c2.9,1.9,5.8,3.9,8.7,5.8c2.6,1.7,5.2,3.1,7.9,4.4C49.4,207.3,61.8,208.9,74.8,206z
	"/>
<path d="M368.8,204.6c-1.2-0.1-2.4,0-3.2,0.3c-0.8,0.2-2,5.7-3.6,8.5c1.6-2.5,2.4-5.6,3.6-8.5C366.7,204.7,367.8,204.6,368.8,204.6z
	"/>
<path d="M361.7,213.9c0-0.1,0.1-0.1,0.1-0.2C361.7,213.8,361.7,213.9,361.7,213.9c-6.2,8.9-12.8,17.5-19.2,26.1c0,0,0,0,0,0
	c0,0,0,0,0,0C348.9,231.4,355.5,222.8,361.7,213.9z"/>
<path d="M380.7,208.5C380.7,208.5,380.7,208.5,380.7,208.5c-0.3-0.8-2.5-1.8-5.2-2.6C377.2,206.5,378.9,207.4,380.7,208.5
	L380.7,208.5z"/>
<path d="M310.1,460.3c-1,4-2.1,8-3.4,12c-0.5,1.6-1,2.9-0.9,4.7c0.1,1.2-0.2,2.6-0.7,3.8c0.5-1.3,0.8-2.6,0.7-3.8
	c-0.1-1.8,0.4-3.1,0.9-4.7C307.9,468.3,309,464.3,310.1,460.3c0.4-1.7,0.5-3.6,1-5.3c0,0,0,0,0-0.1c0,0,0,0,0,0.1
	C310.6,456.7,310.5,458.6,310.1,460.3z"/>
<path d="M297.9,437.9c-2.9,12.3-5.4,24.7-7.6,37.2c-0.1,0.4-0.1,0.8-0.2,1.3c0.1-0.4,0.1-0.8,0.2-1.3
	C292.5,462.6,295.1,450.2,297.9,437.9z"/>
<path d="M340,242.1L340,242.1c0-0.1,0-0.2,0-0.2C340,242,340,242.1,340,242.1C340,242.1,340,242.1,340,242.1z"/>
<path d="M340.2,240.5c2.4-16.1,16.3-39.7,15.7-40.7c0,0,0,0-0.1-0.1c0,0,0,0,0.1,0.1C350,212.8,342.2,225.2,340.2,240.5z"/>
<path d="M315.3,437.6C315.3,437.6,315.3,437.6,315.3,437.6c0-1-1.5,0-2.8,0C313.8,437.6,314.2,437.6,315.3,437.6L315.3,437.6z"/>
<path d="M295.7,508.9L295.7,508.9c0.5-0.8-0.6-5.2-0.8-8.1C294.8,503.4,295.8,506.1,295.7,508.9z"/>
<path d="M376.3,224c-8.8,26.1-17.3,52.4-23.6,79.2c-2.8,11.8-5.5,23.5-8.5,35.3c-1.4,5.5-2.6,11-4.6,16.4c2-5.3,3.2-10.9,4.6-16.4
	c3-11.7,5.7-23.5,8.5-35.3C359,276.4,367.5,250.1,376.3,224c1.6-4.6,2.4-7.7,2.9-9.9C378.3,217.4,377.4,220.7,376.3,224z"/>
<path d="M352,196.9c-3.4-1.6-7.4-1.8-7.6-1.4c-5.8,8.5-10.9,17.2-14.6,26.7c3.7-9.5,8.7-18.2,14.6-26.7
	C346.9,196,349.6,196,352,196.9z"/>
<path d="M335.2,371L335.2,371c0.6-0.9,0.6-2.2,0.8-3.3c0.4-2.2,0.3-4.7,1-6.7c-0.7,2.1-0.6,4.5-1,6.7
	C335.8,368.8,335.8,370.1,335.2,371z"/>
<path d="M295.7,508.9c-1.6,0.3-3.2,0.7-5,1.1C291.1,510.3,294,510.7,295.7,508.9z"/>
<path d="M297.5,499c0.3-1.8,0.7-3.6,1.2-5.4C298.2,495.3,297.8,497.1,297.5,499C297.5,499,297.5,499,297.5,499z"/>
<path d="M297.5,499C297.5,499,297.5,499,297.5,499C297.5,499,297.5,499,297.5,499z"/>
<path d="M324.7,402.9c-1.7,6.4-3.1,12.8-4.9,19.1c-0.5,1.9-1,3.8-1.7,5.7c0.6-1.9,1.1-3.8,1.7-5.7
	C321.6,415.7,323,409.3,324.7,402.9c1.1-4.3,2.4-8.6,3.8-12.8c1.8-5.6,2.7-11.6,5.4-16.8c-2.8,5.3-3.6,11.2-5.4,16.9
	C327.1,394.4,325.8,398.6,324.7,402.9z"/>
<path d="M352.7,303.2c6.3-26.9,14.8-53.1,23.6-79.2c1.1-3.3,2-6.6,2.9-9.9c0.6-2.6,0.9-4.1,1.5-5.6v0c-1.7-1.1-3.5-1.9-5.2-2.6
	c-2.2-0.6-4.6-1.1-6.7-1.3c-1,0-2.1,0.1-3.2,0.3c-1.2,2.9-2,6-3.6,8.5c-0.1,0.1-0.2,0.2-0.2,0.4c0,0.1-0.1,0.1-0.1,0.2
	c-6.2,8.9-12.8,17.5-19.2,26.1c0,0,0,0,0,0c-1.5,2-2.5,2.7-2.5,2.1c0,0,0,0,0,0c0-0.1,0-0.2,0-0.2c0.1-0.5,0.1-0.9,0.2-1.4
	c2-15.3,9.8-27.7,15.7-40.7c0,0,0,0-0.1-0.1c-0.9-1.3-2.3-2.2-3.8-2.9c-2.4-0.9-5.2-0.8-7.6-1.4c-5.8,8.5-10.9,17.2-14.6,26.7
	c-0.4,1.1-0.9,2.2-1.2,3.4c-1.8,5.4-3.1,10.9-2.5,16.6c0.6,6.1,2.7,11.7,7.8,15.5c4.2,3.1,7.5,3,11.6-0.3c0.8-0.6,1.8-1,3.5-2
	c-1,3.3-1.7,5.6-2.4,8c-3.6,12.6-7.3,25.2-10.7,37.9c-5.8,21.2-11.2,42.4-17.1,63.5c-3,10.7-6.7,21.2-10,31.9
	c-4.1,13.6-7.8,27.4-11,41.3c-2.9,12.3-5.4,24.7-7.6,37.2c-0.1,0.4-0.1,0.8-0.2,1.3c-1.2,7.1-1.6,14.4-2,21.6
	c-0.2,4.1,0.5,8.2,2.6,12.1l0,0c1.8-0.4,3.4-0.8,5-1.1l0,0c0.1-2.8-0.9-5.4-0.8-8.1c-0.1-1.1,0-1.9,0.4-2.3c0.9-0.2,1.3,0.7,1.7,0.9
	c0.2-0.2,0.4-0.3,0.5-0.3c0,0,0,0,0,0c0,0,0,0,0-0.1c0.3-1.9,0.7-3.6,1.2-5.4c1.1-3.8,2.9-7.4,5.2-10.7c0.4-0.6,0.8-1.3,1.1-2.1
	c0.5-1.3,0.8-2.6,0.7-3.8c-0.1-1.8,0.4-3.1,0.9-4.7c1.2-3.9,2.3-8,3.4-12c0.4-1.7,0.5-3.6,1-5.3c0,0,0,0,0-0.1
	c1.4-5.8,2.9-14.9,4.3-17.4l0,0c-1.1,0-1.5,0-2.8,0c3-3.1,4.6-6.4,5.7-9.8c0.6-1.9,1.1-3.8,1.7-5.7c1.8-6.3,3.2-12.8,4.9-19.1
	c1.1-4.3,2.4-8.6,3.8-12.8c1.8-5.6,2.7-11.6,5.4-16.9c0.4-0.8,0.8-1.5,1.3-2.2c0.6-0.9,0.6-2.2,0.8-3.3c0.4-2.2,0.3-4.7,1-6.7
	c0.1-0.3,0.2-0.6,0.4-0.9c0.8-1.7,1.6-3.5,2.2-5.3c2-5.3,3.2-10.9,4.6-16.4C347.2,326.8,349.9,315,352.7,303.2z"/>
<path d="M170.5,315.7c-7.1,12.2-11.5,25.3-15.7,38.6c-1.7,5.5-3.4,11.1-4.7,16.7c-1.8,7.8-2.2,15.7-1.1,23.5
	c-1.1-7.8-0.7-15.7,1.1-23.5c1.3-5.6,3-11.2,4.7-16.7C159,341.1,163.4,327.9,170.5,315.7c4.2-7.3,7.4-15.2,12.7-21.9
	c1.3-1.7,2.5-3.5,2.5-5.6c0,2.1-1.1,3.9-2.5,5.6C178,300.5,174.8,308.5,170.5,315.7z"/>
<path d="M263.4,173.9c2.1,1.9,3.6,3.2,5.6,4.9C267,177,264.7,173.9,263.4,173.9z"/>
<polygon points="185.6,287.3 185.6,287.3 185.6,287.3 "/>
<path d="M270,187.8c-0.1,15-2,29.9-4.6,44.6c-4.3,23.9-8.8,47.7-13.2,71.6c-5.7,30.4-15.4,59.5-30.3,86.7
	c-7.7,14.1-17.7,26.3-31.2,35.1c-8.7,5.7-25.1,9.2-36.8-1.2c-5.3-4.6-9.9-9.5-12.4-15.9c-1.8-4.6-2.6-9.6-3.3-14.5
	c-0.4-2.8-0.6-5.6-0.6-8.4c0,2.8,0.2,5.6,0.6,8.4c0.8,4.9,1.6,9.9,3.3,14.5c2.5,6.4,7.1,11.3,12.4,15.9c11.8,10.4,28.2,6.9,36.8,1.2
	c13.4-8.8,23.5-21,31.2-35.1c14.9-27.2,24.7-56.3,30.3-86.7c4.5-23.9,8.9-47.7,13.2-71.6C268.1,217.6,269.9,202.8,270,187.8
	c0-3.1-0.2-7.5-0.9-8.9C269.4,181.6,270.1,184.7,270,187.8z"/>
<path d="M260.5,188.2c0.9-4.5,1.8-9,2.9-14.4C262.4,173.3,261.4,183.7,260.5,188.2z"/>
<path d="M189.3,281.7C189.3,281.7,189.3,281.7,189.3,281.7C189.3,281.7,189.3,281.7,189.3,281.7
	C189.3,281.7,189.3,281.7,189.3,281.7z"/>
<path d="M187,279.7c0.8,0.7,1.4,1.3,2.3,2.1C189.3,280.5,188.3,278.9,187,279.7z"/>
<path d="M141.4,408.7c2.5,6.4,7.1,11.3,12.4,15.9c11.8,10.4,28.2,6.9,36.8,1.2c13.4-8.8,23.5-21,31.2-35.1
	c14.9-27.2,24.7-56.3,30.3-86.7c4.5-23.9,8.9-47.7,13.2-71.6c2.7-14.8,4.5-29.6,4.6-44.6c0-3.1-0.6-6.2-0.9-8.9c0,0,0,0,0,0
	c0,0-0.1-0.1-0.1-0.1c-2-1.7-3.5-3-5.6-4.9c0,0,0,0,0,0l0,0c-1.1,5.4-2,9.9-2.9,14.4c0,0,0,0.1,0,0.1c-3.9,19.1-7.8,38.1-11.7,57.2
	c-3.8,18.4-7.1,36.9-11.4,55.2c-5.5,23.5-14.1,46.1-24.1,68.1c-6,13.2-12.9,25.9-22.7,36.8c-6.6,7.3-13.8,13.5-24.9,14.3
	c-8.1-3.6-13.3-10.5-15.4-19.1c-0.5-2.1-0.9-4.1-1.2-6.2c-1.1-7.8-0.7-15.7,1.1-23.5c1.3-5.6,3-11.2,4.7-16.7
	c4.2-13.3,8.6-26.5,15.7-38.6c4.2-7.3,7.4-15.2,12.7-21.9c1.3-1.7,2.5-3.5,2.5-5.6c0-0.3,0-0.6-0.1-0.9c0,0,0,0,0,0s0,0,0,0
	c0,0,0,0,0,0c0.5-3,2.4-3.7,3.6-5.6c0,0,0,0,0,0l0,0c-0.9-0.8-1.5-1.3-2.3-2.1c-0.9,0.7-1.8,1.4-2.7,2.1c-6.2,5-11.1,10.8-15.4,17
	c-14.4,20.9-25.4,43.3-29.6,68.6c-1,6.1-1.8,12.2-1.8,18.4c0,2.8,0.2,5.6,0.6,8.4C138.8,399.1,139.7,404.1,141.4,408.7z"/>
<path d="M319.9,231.4c-0.5-2.9-2-4.7-5.6-8.1c-0.1,0.1-0.2,0.2-0.3,0.2C317.9,227.1,319.4,228.6,319.9,231.4z"/>
<path d="M316.9,253.8c-1.6,4-3.2,8.1-5.2,11.9C313.7,261.8,315.2,257.8,316.9,253.8z"/>
<path d="M292.9,214.9c0.8-1.1,1.4-2.3,1.9-3C294.1,211.6,293.9,213.6,292.9,214.9z"/>
<path d="M278.9,273.8c1.5,2,3.9,4.3,6.1,4.7C282.8,278.1,280.4,275.9,278.9,273.8z"/>
<path d="M299.2,277.6c5.3-2.6,9.6-6.6,12.4-11.9c2-3.8,3.6-7.9,5.2-11.9c2-4.8,3.1-9.7,3.2-15c0.1-3.4,0.1-5.6-0.2-7.4
	c-0.5-2.7-2-4.3-5.9-7.8c0.1-0.1,0.2-0.2,0.3-0.2c-0.1-0.1-0.3-0.2-0.4-0.4c2-1,1.7-1.3,1.3-1.4c-1.6,0.2-1.1-0.1-1.8,0
	c-4.5-5.7-10.4-8.2-18.8-9.6c-0.4,0.7-1,1.9-1.9,3c-7.3,9.5-13.5,19.8-17.7,31.1c-3.8,10-2.4,19.3,3.8,27.9c1.5,2,3.9,4.3,6.1,4.7
	C289.7,279.3,294.7,279.8,299.2,277.6z M290.8,266.1C290.8,266.1,290.8,266.1,290.8,266.1c-2.3-1.1-2.6-4.1-2.4-6.4c0,0,0,0,0,0
	c0-0.3,0.1-0.6,0.1-0.9c0.1-0.4,0.1-0.9,0.2-1.3c0.2-1,0.3-2.1,0.5-3.1c0.3-1.4,0.6-2.8,1-4.1c0.2-0.7,0.4-1.4,0.6-2.1c0,0,0,0,0,0
	c0.2-0.5,0.3-1.1,0.6-1.6c1-2.8,2.2-5.6,3.5-8.3c2.9-6.1,6.1-11.8,6.6-11.2c0.6,1.2,1,2.4,1.4,3.5c1.8,5,2,9.8-0.4,14.7
	c-0.5,1.1-1,2.2-1.5,3.3c-0.4,1-0.9,2.1-1.3,3.1c-0.8,1.8-1.6,3.7-2.6,5.4C295.4,260.1,291.3,266,290.8,266.1
	C290.8,266.1,290.8,266.1,290.8,266.1z"/>
<path d="M163.4,200.1c-2,0.6-5.7,6.1-8.3,10.6C157.4,206.8,160.1,203.2,163.4,200.1z"/>
<path d="M123.7,355.9c-3.3-2.5-3.7-6.1-3.7-9.7c-0.2-10.7,1.6-21.3,4.5-31.5c3.6-12.5,8.1-24.6,11.5-37.1
	c4.1-15.1,7.4-30.3,11.1-45.5c1.6-6.8,4-13.4,7.2-19.6c0.3-0.6,0.6-1.1,0.9-1.6c-0.3,0.6-0.6,1.1-0.9,1.6
	c-3.3,6.2-5.6,12.8-7.2,19.6c-3.7,15.2-7,30.5-11.1,45.5c-3.4,12.5-7.9,24.7-11.5,37.1c-2.9,10.3-4.7,20.8-4.5,31.5
	C120,349.8,120.3,353.5,123.7,355.9c1.7,1.3,1.5-1.5,2.3-1.9c0.9-0.5,2.9,0.3,3-0.9v0c-1,0.3-2.1,0.4-3,0.9
	C125.1,354.4,124.5,355.2,123.7,355.9z"/>
<path d="M167.7,251.9c-4.8,1.2-10.6,3.6-15.9,5c5.8-1.5,11-2.9,16.2-4.3C168,252.2,168.1,251.8,167.7,251.9z"/>
<path d="M164.9,227.4c-1.5-0.6-2.7-1-4.1-1.5v0C162.2,226.4,163.4,227.8,164.9,227.4c1.4-0.8,5.4-4.8,8-7.4c1.8-1.7,4.8-4.1,4.8-5.4
	c-1.5,1.7-3,3.7-4.8,5.4C170.3,222.5,167.6,224.9,164.9,227.4z"/>
<path d="M150.4,264.9c6.9-3.1,16.9-4.8,17.8-11.5c-0.1,0-0.1,0-0.2,0C164.3,260.6,156.9,261.9,150.4,264.9z"/>
<path d="M149.5,265.3C149.5,265.3,149.6,265.3,149.5,265.3C149.6,265.3,149.5,265.3,149.5,265.3
	C149.5,265.3,149.5,265.3,149.5,265.3z"/>
<path d="M144.4,285.1c1.9-6.5,3.4-13.2,5.1-19.8c0,0,0,0,0,0c0,0,0,0,0,0c0,0,0,0,0.1,0c0.3-0.1,0.6-0.3,0.9-0.4
	c6.4-3,13.8-4.3,17.7-11.5c-0.1-0.1-0.1-0.4-0.1-0.7c-5.2,1.4-10.4,2.7-16.2,4.3c0,0,0,0,0,0c1.8-10.9,3.3-21.4,9-31l0,0
	c0,0,0,0,0,0c1.4,0.5,2.6,0.9,4.1,1.5c2.7-2.4,5.4-4.8,8-7.4c1.8-1.7,3.3-3.7,4.8-5.4l0,0c-1.3-7.9-7.7-14.4-14.3-14.4l0,0
	c-3.4,3-6,6.6-8.3,10.6c0,0,0,0.1,0,0.1c-0.3,0.5-0.6,1.1-0.9,1.6c-3.3,6.2-5.6,12.8-7.2,19.6c-3.7,15.2-7,30.5-11.1,45.5
	c-3.4,12.5-7.9,24.7-11.5,37.1c-2.9,10.3-4.7,20.8-4.5,31.5c0.1,3.6,0.4,7.3,3.7,9.7c0.8-0.7,1.5-1.5,2.3-1.9c0.9-0.5,2.1-0.6,3-0.9
	c-0.1-13.3,2.8-25.7,5.9-36.5C137.9,306,141.3,295.6,144.4,285.1z"/>
<path d="M132.2,250c-0.1,0.9-0.2,1.8-0.3,2.7C132,251.8,132.1,250.9,132.2,250z"/>
<path d="M129.8,238.2c0.6,0.6,1.3,1.2,2.1,2C131.6,239.7,130.8,239,129.8,238.2z"/>
<path d="M131.9,252.7c-0.1,0.9-0.3,1.8-0.5,2.6C131.6,254.4,131.7,253.6,131.9,252.7z"/>
<path d="M236.9,146.4c0.3-0.4,0.6-0.8,0.9-1.2C237.5,145.6,237.2,146,236.9,146.4z"/>
<path d="M227.2,175.1c0.1-8.9,4.1-20.7,9.6-28.6C231.3,154.5,227.2,166.2,227.2,175.1z"/>
<path d="M227.6,179.9c0.4-0.3,1-0.4,1.2-0.8c0.8-1.2,1.5-2.4,2.2-3.6c-0.7,1.2-1.5,2.4-2.2,3.6C228.6,179.5,228,179.6,227.6,179.9z"
	/>
<path d="M242.3,152.5c0.2-0.6,0.4-1.2,0.6-1.8c0.1-0.2,0.1-0.4,0.2-0.5c-0.1,0.2-0.1,0.4-0.2,0.5
	C242.7,151.3,242.4,151.9,242.3,152.5z"/>
<rect x="180.1" y="122.7" width="0" height="0"/>
<path d="M180.1,122.7c0-0.1,0-0.1,0-0.1C180.1,122.6,180.1,122.6,180.1,122.7L180.1,122.7z"/>
<path d="M179.9,123c0.1-0.1,0.1-0.2,0.2-0.3c0,0,0,0,0,0C180.1,122.8,180,122.9,179.9,123L179.9,123L179.9,123z"/>
<path d="M180.2,122.5C180.2,122.5,180.2,122.5,180.2,122.5L180.2,122.5z"/>
<path d="M179.9,123L179.9,123l0.1,0.1c0-0.1,0-0.3,0.1-0.4C180.1,122.8,180,122.9,179.9,123z"/>
<path d="M180.2,122.5c0,0-0.1,0.1-0.1,0.2l0,0C180.2,122.6,180.2,122.5,180.2,122.5z"/>
<path d="M180.1,122.5c0-0.2,0-0.1,0,0.1l0,0C180.1,122.6,180.1,122.6,180.1,122.5z"/>
<path d="M288.6,257.5c-0.1,0.4-0.1,0.9-0.2,1.3c0,0.3-0.1,0.6-0.1,0.9c0-0.3,0.1-0.6,0.1-0.9C288.5,258.4,288.6,257.9,288.6,257.5z"
	/>
<path d="M294.8,238.2c1.9-3.8,4.1-7.5,6.6-11.2C301,226.3,297.7,232,294.8,238.2z"/>
<path d="M290.8,248.1c0.2-0.6,0.4-1.1,0.6-1.6C291.1,247,290.9,247.6,290.8,248.1z"/>
<path d="M289.2,254.4c0.3-1.4,0.6-2.8,1-4.1C289.8,251.7,289.5,253,289.2,254.4z"/>
<g>
	<path d="M119.4,234.2C119.4,234.2,119.4,234.2,119.4,234.2C119.4,234.2,119.4,234.2,119.4,234.2c-6.2,5.6-10.4,12.6-12.7,20.6
		C109,246.8,113.3,239.8,119.4,234.2z"/>
	<path d="M113.3,274.8c-4.2-1.2-6.4-4.5-7.1-8.6C106.9,270.3,109.1,273.6,113.3,274.8c9.9-3.2,15.8-10.6,18-19.6
		C129.1,264.3,123.2,271.6,113.3,274.8z"/>
	<path d="M106.3,256.4c0.1-0.6,0.3-1.1,0.5-1.6C106.6,255.3,106.4,255.8,106.3,256.4c-0.8,3.1-0.6,6.7-0.1,9.9
		C105.7,263,105.5,259.5,106.3,256.4z"/>
	<path d="M119.4,234.2c1.5,0.2,2.6,0.4,3.6,0.6C121.5,234.2,120.2,233.9,119.4,234.2z"/>
	<path d="M131.9,240.2c-0.8-0.8-1.5-1.4-2.1-2c-1.8-1.3-4.5-2.7-6.8-3.5c-1-0.2-2.1-0.4-3.6-0.6c0,0,0,0,0,0
		c-6.2,5.6-10.4,12.6-12.7,20.6c-0.2,0.5-0.3,1.1-0.5,1.6c-0.8,3.1-0.6,6.7-0.1,9.9c0.7,4.1,2.9,7.4,7.1,8.6
		c9.9-3.2,15.8-10.6,18-19.6c0.2-0.9,0.4-1.7,0.5-2.6s0.3-1.8,0.3-2.7C132.5,246.8,132.4,243.5,131.9,240.2z M122.5,254.4
		c-1.9,4.2-4.4,7.8-8.7,10.4c0.3-1.7,0.3-3.6,0.9-5.2c1.5-4.4,1.9-8.7,5.8-11.9l0.7-0.8v0l0,0v0l0.1,0.5c-0.3,0.9-0.8,1.6-1.3,2.8
		C119.4,252,122.8,252.4,122.5,254.4z"/>
	<polygon points="121.1,247.2 121.2,246.9 121.2,246.9 121,247.1 	"/>
	<polygon points="121.2,246.9 121.2,246.9 121.2,246.9 	"/>
</g>
</svg>
